<svg xmlns="http://www.w3.org/2000/svg" xmlns:xlink="http://www.w3.org/1999/xlink" viewBox="0 0 1006.44 786.76">
  <defs>
    <linearGradient id="a" x1="281.77" y1="19.58" x2="281.77" y2="429.22" gradientTransform="matrix(1, 0, 0, -1, 0, 785.99)" gradientUnits="userSpaceOnUse">
      <stop offset="0" stop-color="gray" stop-opacity="0.25"/>
      <stop offset="0.54" stop-color="gray" stop-opacity="0.12"/>
      <stop offset="1" stop-color="gray" stop-opacity="0.1"/>
    </linearGradient>
    <linearGradient id="b" x1="282.79" y1="1.24" x2="282.79" y2="32.83" xlink:href="#a"/>
    <linearGradient id="c" x1="376" y1="368.9" x2="376" y2="665.85" gradientTransform="matrix(1, 0, 0, -1, -96.78, 729.4)" xlink:href="#a"/>
    <linearGradient id="d" x1="376" y1="378.27" x2="376" y2="656.47" gradientTransform="matrix(1, 0, 0, -1, -96.78, 729.4)" xlink:href="#a"/>
    <linearGradient id="e" x1="278.7" y1="453.67" x2="278.7" y2="545.38" xlink:href="#a"/>
    <linearGradient id="f" x1="278.7" y1="461.46" x2="278.7" y2="537.6" xlink:href="#a"/>
    <linearGradient id="g" x1="379.45" y1="257.3" x2="379.45" y2="386.16" gradientTransform="matrix(1, 0, 0, -1, -96.78, 729.4)" xlink:href="#a"/>
    <linearGradient id="h" x1="372.97" y1="257.17" x2="372.97" y2="379.3" gradientTransform="matrix(1, 0, 0, -1, -96.78, 729.4)" xlink:href="#a"/>
    <linearGradient id="i" x1="317.13" y1="316.91" x2="317.13" y2="434.55" xlink:href="#a"/>
    <linearGradient id="j" x1="377.53" y1="369.55" x2="377.53" y2="398.09" gradientTransform="matrix(1, 0, 0, -1, -96.78, 729.4)" xlink:href="#a"/>
    <linearGradient id="l" x1="377.53" y1="372.6" x2="377.53" y2="401.14" gradientTransform="matrix(1, 0, 0, -1, -96.78, 729.4)" xlink:href="#a"/>
    <linearGradient id="m" x1="685.34" y1="109.6" x2="685.34" y2="506.6" gradientTransform="matrix(1, 0, 0, -1, -96.78, 729.4)" xlink:href="#a"/>
  </defs>
  <title>basketball</title>
  <path d="M235.22,634.67s20.48,20.48,8.92,50.87S264,766.48,264,766.48l-1-.16c-42.07-7.42-63-55.54-39.58-91.28C232.16,661.76,239.29,646.17,235.22,634.67Z" transform="translate(0 -0.01)" style="fill: #688ea7"/>
  <path d="M235.22,634.67s11.56,25.11,0,45.59-2,78,28.74,86.22" transform="translate(0 -0.01)" style="fill: none;stroke: #535461;stroke-miterlimit: 10"/>
  <path d="M198.78,717.52s23.37-3.72,25.5,17.22,44.94,23.85,44.94,23.85l-.8.53c-35.35,23.21-69.14,14.78-64-16C206.22,731.64,206.11,720.13,198.78,717.52Z" transform="translate(0 -0.01)" style="fill: #688ea7"/>
  <path d="M198.78,717.52s23.37-3.72,25.5,17.22,44.94,23.85,44.94,23.85l-.8.53c-35.35,23.21-69.14,14.78-64-16C206.22,731.64,206.11,720.13,198.78,717.52Z" transform="translate(0 -0.01)" style="fill: #f5f5f5;opacity: 0.20000000298023224;isolation: isolate"/>
  <path d="M198.78,717.52s18.14,4,16.65,20.48,26.94,36.27,53.79,20.6" transform="translate(0 -0.01)" style="fill: none;stroke: #535461;stroke-miterlimit: 10"/>
  <path d="M886.29,364.07c11.44,23.49,4.16,57.19,20.36,76.39,11.88,14.08,31.6,14,45.07,25.88,10.48,9.27,15.7,24.44,20.45,38.84l23.08,70c10.51,31.88,19.49,72.92-1.68,96.29-12.69,14-31.86,15.59-49.19,14.1C819,674.78,718.06,548.28,593.06,532c-88.35-11.55-175.64,33.89-264.5,31.38-47-1.33-92.89-16-138.24-30.64-34.88-11.23-73.59-26-90.22-63.86-7.43-16.92-9.74-37.36-20.78-51.27-8.46-10.67-20.69-15.72-31.2-23.45C2.34,360.4-2.91,285,1.08,221.51,3.29,186.29,7,150.23,21,119S61.1,61.86,91,60.84c18.92-.65,37,8.37,55.41,13.41s40,5.19,53.82-10c11.34-12.47,14.9-32.5,26.24-45,8.83-9.71,21.15-13.48,33.06-15.79C323.6-9,391.83,12.6,442.06,61.12c12.21,11.79,23.84,25.39,38.76,31.44,19.87,8,41.59,1.23,62.6,1.4,74.12.6,124.39,80.82,176.63,131.39,30.54,29.57,60.08,35.94,93.22,55.64C833.78,293.19,873.92,338.68,886.29,364.07Z" transform="translate(0 -0.01)" style="fill: #688ea7;opacity: 0.5;isolation: isolate"/>
  <rect x="259.35" y="356.77" width="44.84" height="409.64" style="fill: url(#a)"/>
  <polygon points="353.1 784.75 212.47 784.75 262.41 753.16 300.11 753.16 353.1 784.75" style="fill: url(#b)"/>
  <path d="M61.66,146.87s189.56-187.47,435.12,0v162S304.19,425,61.67,308.87Z" transform="translate(0 -0.01)" style="fill: url(#c)"/>
  <path d="M75.42,151S253-24.65,483,151V302.77s-180.41,108.82-407.6,0Z" transform="translate(0 -0.01)" style="fill: url(#d)"/>
  <rect x="224.7" y="240.61" width="108.01" height="91.71" style="fill: url(#e)"/>
  <rect x="233.87" y="248.39" width="89.67" height="76.14" style="fill: url(#f)"/>
  <g style="opacity: 0.10000000149011612">
    <path d="M316.51,472.1l-34.07-58.7L252.22,470,226,410.68l-27.28,60.44-.95-.38c11-32.12.09-123.17,0-124.09l-.42-3.41L226,408.17l23.91-53,32.53,56.07,29.75-55.84,25.2,57.51,24.46-65.77,6.12-1.22-.14.74c-.18.94-16.89,89-7.39,118.86l2.26,5.16-.9.47a24.43,24.43,0,0,1-2.32-5.29l-22-50.23ZM283,412.31l33.3,57.41,20.61-55.41-24.78-56.55Zm-56.48-2.91,25.7,58.31,29.58-55.38L250,357.4ZM199.1,349.84c1.74,15.68,8.51,82.57,1.35,114.85l25-55.29ZM338,414.29l20.07,45.8c-6.1-32.6,7-104.11,8.64-112.85l-4.07.81Z" transform="translate(0 -0.01)" style="fill: url(#g)"/>
  </g>
  <g style="opacity: 0.10000000149011612">
    <path d="M227.74,472.23l-25.28-63.29.95-.38,24.38,61,24.43-55.75L219.65,354l.89-.49,32.19,59.15L277.14,357h.3l72.48-6.85L282.78,469.93l-29.93-55Zm25.63-58.47,29.42,54.06L348.1,351.27l-70.24,6.64Z" transform="translate(0 -0.01)" style="fill: url(#h)"/>
  </g>
  <g style="opacity: 0.10000000149011612">
    <polygon points="335.84 469.08 335.32 468.08 275.2 351.91 276.11 351.44 335.71 466.6 358.11 408.56 359.06 408.93 335.84 469.08" style="fill: url(#i)"/>
  </g>
  <path d="M280.75,331.31c-47.84,0-86.61,6.39-86.61,14.27s38.78,14.27,86.61,14.27,86.61-6.39,86.61-14.27S328.58,331.31,280.75,331.31Zm0,22.42c-43.9,0-79.48-4.11-79.48-9.17s35.58-9.16,79.48-9.16,79.47,4.09,79.47,9.16-35.58,9.17-79.47,9.17Z" transform="translate(0 -0.01)" style="fill: url(#j)"/>
  <g style="opacity: 0.20000000298023224">
    <path d="M280.75,331.31c-47.84,0-86.61,6.39-86.61,14.27s38.78,14.27,86.61,14.27,86.61-6.39,86.61-14.27S328.58,331.31,280.75,331.31Zm0,22.42c-43.9,0-79.48-4.11-79.48-9.17s35.58-9.16,79.48-9.16,79.47,4.09,79.47,9.16-35.58,9.17-79.47,9.17Z" transform="translate(0 -0.01)" style="fill: url(#j)"/>
  </g>
  <path d="M280.75,328.26c-47.84,0-86.61,6.39-86.61,14.27s38.78,14.27,86.61,14.27,86.61-6.39,86.61-14.27S328.58,328.26,280.75,328.26Zm0,22.42c-43.9,0-79.48-4.11-79.48-9.17s35.59-9.17,79.48-9.17,79.47,4.06,79.47,9.16-35.58,9.17-79.47,9.17Z" transform="translate(0 -0.01)" style="fill: url(#l)"/>
  <rect x="259.72" y="358.03" width="44" height="402" style="fill: #e8eaf1"/>
  <polygon points="351.72 778.03 213.72 778.03 262.72 747.03 299.72 747.03 351.72 778.03" style="fill: #e8eaf1"/>
  <path d="M65.72,152s186-184,427,0V311s-189,114-427,0Z" transform="translate(0 -0.01)" style="fill: #e8eaf1"/>
  <path d="M79.22,156.09s174.24-172.37,400,0V305s-177,106.79-400,0Z" transform="translate(0 -0.01)" style="fill: #f3f5f7"/>
  <rect x="225.72" y="244.03" width="106" height="90" style="fill: #fff"/>
  <rect x="234.72" y="251.67" width="88" height="74.72" style="fill: #f3f5f7"/>
  <path d="M315.82,471.21l-33.44-57.64-29.71,55.61-25.73-58.25-26.72,59.32-.93-.37c10.84-31.53.09-120.88,0-121.78l-.41-3.35L227,408.47l23.47-52,31.92,55,29.27-54.8,24.73,56.44,24-64.55,6-1.2-.14.73c-.18.93-16.58,87.34-7.25,116.65l2.22,5.06-.89.46a24.22,24.22,0,0,1-2.28-5.19l-21.6-49.3Zm-32.88-58.68,32.68,56.34,20.22-54.37L311.53,359Zm-55.44-2.82,25.26,57.2,29-54.35-31.25-53.88Zm-26.91-58.45c1.71,15.38,8.35,81,1.32,112.71l24.49-54.26Zm136.33,63.21,19.69,44.93c-6-32,6.86-102.17,8.48-110.74l-4,.8Z" transform="translate(0 -0.01)" style="opacity: 0.10000000149011612;isolation: isolate"/>
  <path d="M228.7,471.34l-24.81-62.11.93-.37,23.93,59.89,24-54.74-32-58.72.88-.48,31.59,58,24-54.64h.29l71.13-6.72L282.71,469.08l-29.37-54ZM253.85,414,282.72,467l64.1-114.38-68.93,6.51Z" transform="translate(0 -0.01)" style="opacity: 0.10000000149011612;isolation: isolate"/>
  <polygon points="334.79 468.25 334.27 467.26 275.27 353.26 276.16 352.8 334.65 465.81 356.64 408.85 357.57 409.21 334.79 468.25" style="opacity: 0.10000000149011612;isolation: isolate"/>
  <path d="M280.72,333c-46.94,0-85,6.27-85,14s38.06,14,85,14,85-6.27,85-14S327.66,333,280.72,333Zm0,22c-43.08,0-78-4-78-9s34.92-9,78-9,78,4,78,9S323.8,355,280.72,355Z" transform="translate(0 -0.01)" style="fill: #5f546f"/>
  <path d="M280.72,333c-46.94,0-85,6.27-85,14s38.06,14,85,14,85-6.27,85-14S327.66,333,280.72,333Zm0,22c-43.08,0-78-4-78-9s34.92-9,78-9,78,4,78,9S323.8,355,280.72,355Z" transform="translate(0 -0.01)" style="opacity: 0.20000000298023224;isolation: isolate"/>
  <path d="M280.72,330c-46.94,0-85,6.27-85,14s38.06,14,85,14,85-6.27,85-14S327.66,330,280.72,330Zm0,22c-43.08,0-78-4-78-9s34.92-9,78-9,78,4,78,9S323.8,352,280.72,352Z" transform="translate(0 -0.01)" style="fill: #5f546f"/>
  <path d="M591.39,736.4c-27.09,7.61-56.94-.17-83.62,8.77a18.59,18.59,0,0,0-6.46,3.3c-6.38,5.57-3.86,16.44,1.84,22.7,9.11,10,23.43,13.12,36.88,14.46,65.7,6.53,131.41-17.23,197.19-12.23,9.78.75,21.18,1.56,27.74-5.73,4.84-5.37,5.17-13.65,2.78-20.47-4.39-12.52-16.52-21.07-29.29-24.66s-26.3-3-39.56-2.41c-18,.82-36.15.59-54.1,1.78C625.6,723.23,609.57,731.33,591.39,736.4Z" transform="translate(0 -0.01)" style="fill: #688ea7;opacity: 0.10000000149011612;isolation: isolate"/>
  <path d="M748.22,587.4c-7-1-19.94-12-19.94-12a9.86,9.86,0,0,0-8.59-4.37L706.84,553a134.93,134.93,0,0,0-17.62-23.81q-1.65-1.83-3.41-3.55a96,96,0,0,0-11.14-9.5,66.27,66.27,0,0,1-7.34-6.36,83.78,83.78,0,0,1-6-6.64l-8.94-12.52-.6-.85A13.57,13.57,0,0,0,652,486a6.44,6.44,0,0,0-.1-.87L615,441.77l-11-22.44h0c-.13.11-.57.48-1.26,1l-.2-.57v-2.15a92.5,92.5,0,0,1,11.21-44.48,31.27,31.27,0,0,0,3.79-14.93v-1.26l-.19-.21c-.35-.39-1.15-1.29-2.18-2.62l.4-.78c4.58-8.42,11-9.86,11-9.86,21.44-3,36.9-17.45,36.9-17.45,16-9,13-17,13-17l-14.46-34.9-9-18.45-2.49-8.48A144.29,144.29,0,0,0,647,230.46c-2.13-8.12-12.74-10.43-17.86-3.78-.12.16-.25.33-.37.51a16,16,0,0,0,2.86,21.35c5,4.26,9.35,8.63,9.35,8.63,9,2.49,15,48.86,15,48.86l-6,4A33.33,33.33,0,0,0,626,322H607.22a.9.9,0,0,1,.08-.25l-3.12-.7-9-2-3.33-.75-.05.21-.94-.21v.13a56,56,0,0,1-3.4-6.23,2.75,2.75,0,0,0,.81,0,4.22,4.22,0,0,0,.18-.45h.32c1.39-3,.19-6.75,1.53-9.81a34.79,34.79,0,0,1,2.4-3.73c2-3.45,1.76-7.77,1.17-11.73-.64-4.26-1.62-8.61-4.07-12.16s-6.68-6.15-11-5.59c-3.4.45-6.38,2.78-9.8,3-2.42.14-4.74-.81-7-1.55a43.7,43.7,0,0,0-7.59-1.73c-1.71-.24-3.72-.27-4.87,1l-.1.13a2.79,2.79,0,0,0-.4.37,5.68,5.68,0,0,0-1,1.9L545.83,278a1.41,1.41,0,0,0,0,1.35c.2.25.55.32.82.49,1.75,1.13-.6,3.92.85,5.29.87.82,2.73.91,4.57.9a19.44,19.44,0,0,0,12.23,29.4v1a40.7,40.7,0,0,1-.62,7.87h0l-1.46.13c-2.43.13-7.34.32-11.63.12a38.44,38.44,0,0,1-4.29-.41s-.17,1.82-.5,4.61l-1,.28a41.69,41.69,0,0,0-22.9,16.54l-22.44,13s-10-2.49-38.89,22.44l-20.94,11s-32,9.42-26,18.88,35.9-11.46,35.9-11.46l12-5.48,36.4-16s12-8,20.94-11,17.95-12,17.95-12l2.25-.12,1-.06a7.85,7.85,0,0,1-.49.78,4,4,0,0,1-.29.39v80.27l-.16,2.23h.07l-2.4,32.65s.5,15-1.5,23.43,1.5,42.88,1.5,42.88,1.31,0,3.44-.15l-.06,1-.88,14.11s-1.68,5.44,8,8.27a23.22,23.22,0,0,1,6.26,2.87l11.16,7.31,11.47,7,2.32,4.87.11.24-2.44-1.49s-2,5,4.49,11.47a21.21,21.21,0,0,1,7,17.45s1,12,7,9c0,0,9.47-2,9-18.45,0,0-3.78-13.7.62-19.49.12-.16.25-.31.38-.46,5-5.48-1.5-14-1.5-14S591.61,562.26,591,570l-.48-.21c-2.08-1-5.81-3.43-9.76-9.35,0,0-6.48-16.45-16.45-18l1.67-9.47.19-1.09c3.43-1.62,6.21-3.71,7.61-6.4h0l.06-.12v-.26l.05-.1V525l0-.11.06-.12v-.1l.07-.14.19-.1.07-.15.06-.13.08-.17.07-.14.08-.17.09-.18.07-.14.1-.21.07-.14.43-.93.06-.12.12-.26.09-.19.13-.29.08-.17.15-.34.06-.14.16-.35.08-.17.16-.36.07-.16.17-.38.07-.15.18-.4.06-.15.18-.42.06-.14.2-.45v-.08c3.19-7.42,7.2-18.09,7-24.41a12.68,12.68,0,0,0,0-1.51h-.12v-.1a2,2,0,0,0-.14-.6l26.92,6,16,17.45h.36l.1,0h.09l.13-.06.1,0,.14-.07.12-.06.17-.09.11-.06.19-.1.12-.07.2-.1.14-.08.22-.12.14-.07.23-.13.16-.09.25-.14.17-.41.28-.16.15-.08.29-.16.17-.1.3-.17.16-.1.32-.19.17-.1.33-.2.16-.1.35-.21H633l.56.65,7,8.12c7,3,22.94,17.95,22.94,17.95,1.84,4.41,9.63,10.71,13.61,13.73a25.71,25.71,0,0,0,3.61,2.22c2.18,1.13,5.25,3.82,8.06,6.54a103,103,0,0,0,11.77,10,52.51,52.51,0,0,1,10.19,10.28h0l.34.44c-2.38,8,11.24,16.13,11.24,16.13,5-1,20.44,13,20.44,13s14.46,11.47,20.44-1S748.22,587.4,748.22,587.4ZM721.8,574l-2-2.83h0a3.47,3.47,0,0,1,2,2.8Z" transform="translate(0 -0.01)" style="fill: url(#m)"/>
  <path d="M597.45,329.25S547,358.64,557.78,342a42,42,0,0,0,7-23.7,30.66,30.66,0,0,0-1.1-8.14l21.06-9.8a20.32,20.32,0,0,0,.76,8.59C588.45,319.35,597.45,329.25,597.45,329.25Z" transform="translate(0 -0.01)" style="fill: #db8b8b"/>
  <path d="M585.47,308.94a19.12,19.12,0,0,1-20.72,9.35,30.66,30.66,0,0,0-1.1-8.14l21.06-9.8A20.32,20.32,0,0,0,585.47,308.94Z" transform="translate(0 -0.01)" style="opacity: 0.10000000149011612;isolation: isolate"/>
  <circle cx="568.8" cy="298.63" r="19.1" style="fill: #db8b8b"/>
  <path d="M556.59,288.48a7.3,7.3,0,0,1,4.55,3c1.26,2,1.23,4.74,3,6.3a6.34,6.34,0,0,0,4.65,1.18,22.41,22.41,0,0,1,4.91-.17c2.65.43,4.82,2.39,6.29,4.63a62.51,62.51,0,0,1,3.56,7.2,8.55,8.55,0,0,0,1.78,2.63,3.41,3.41,0,0,0,2.93.94c1.37-3,.19-6.64,1.5-9.63a35,35,0,0,1,2.35-3.66c2-3.39,1.73-7.63,1.14-11.52-.63-4.19-1.59-8.46-4-11.94s-6.56-6-10.76-5.49c-3.34.44-6.27,2.73-9.63,2.93-2.37.14-4.66-.79-6.92-1.52a44.17,44.17,0,0,0-7.45-1.7c-1.68-.23-3.65-.27-4.78,1a5.5,5.5,0,0,0-1,1.86l-2.17,6a1.37,1.37,0,0,0,0,1.33c.2.24.54.31.8.49,1.72,1.11-.59,3.85.83,5.2S554.6,288,556.59,288.48Z" transform="translate(0 -0.01)" style="opacity: 0.10000000149011612;isolation: isolate"/>
  <path d="M557.08,288a7.3,7.3,0,0,1,4.55,3c1.26,2,1.23,4.74,3,6.3a6.34,6.34,0,0,0,4.65,1.18,22.41,22.41,0,0,1,4.91-.17c2.65.43,4.82,2.39,6.29,4.63a62.51,62.51,0,0,1,3.56,7.2,8.55,8.55,0,0,0,1.78,2.63,3.41,3.41,0,0,0,2.93.94c1.37-3,.19-6.64,1.5-9.63a35,35,0,0,1,2.35-3.66c2-3.39,1.73-7.63,1.14-11.52-.63-4.19-1.59-8.46-4-11.94s-6.56-6-10.76-5.49c-3.34.44-6.27,2.73-9.63,2.93-2.37.14-4.66-.79-6.92-1.52a44.17,44.17,0,0,0-7.45-1.7c-1.68-.23-3.65-.27-4.78,1a5.5,5.5,0,0,0-1,1.86L547,280a1.37,1.37,0,0,0,0,1.33c.2.24.54.31.8.49,1.72,1.11-.59,3.85.83,5.2S555.09,287.52,557.08,288Z" transform="translate(0 -0.01)" style="fill: #472727"/>
  <path d="M662.1,327.78s-15.18,14.2-36.24,17.14c0,0-6.26,1.42-10.76,9.69a35.2,35.2,0,0,0-3.45,9.9l-22.6-38.29-1.4-2.37h37.71a32.73,32.73,0,0,1,23.51-11.75l5.88-3.92s-5.88-45.55-14.69-48c0,0-4.3-4.3-9.19-8.48a15.72,15.72,0,0,1-2.81-21c.12-.17.24-.34.37-.5,5-6.53,15.45-4.26,17.55,3.72a140,140,0,0,1,3.39,16.48l2.45,8.33,8.82,18.12,14.2,34.28S677.77,319,662.1,327.78Z" transform="translate(0 -0.01)" style="fill: #db8b8b"/>
  <path d="M549.45,329.74l-2.94,26-6.61.37-2.21.12s-8.82,8.82-17.63,11.75-20.57,10.78-20.57,10.78L463.74,394.4,452,399.79s-29.39,20.61-35.27,11.26,25.5-18.65,25.5-18.65l20.57-10.78c28.41-24.49,38.2-22,38.2-22l22-12.73a40.93,40.93,0,0,1,22.49-16.25A27.13,27.13,0,0,1,549.45,329.74Z" transform="translate(0 -0.01)" style="fill: #db8b8b"/>
  <path d="M615.1,354.61a35.2,35.2,0,0,0-3.45,9.9l-22.6-38.29a15.75,15.75,0,0,0,1.41-2.37,19,19,0,0,0,1.36-3.67l3.27.74,8.85,2,3.07.69a1.13,1.13,0,0,1-.08.24C602.81,336,610.58,348.62,615.1,354.61Z" transform="translate(0 -0.01)" style="opacity: 0.10000000149011612;isolation: isolate"/>
  <path d="M549.45,329.74l-2.94,26-6.61.37c2.81-5,4.72-18.24,5.59-25.43A28.48,28.48,0,0,1,549.45,329.74Z" transform="translate(0 -0.01)" style="opacity: 0.10000000149011612;isolation: isolate"/>
  <path d="M613.32,373.57a90.86,90.86,0,0,0-11,44.12v2.17s5.39,14.69,0,14.69-4.9,7.35-11.75,8.82-30.86,11.75-38.2,7.35S540.13,437,540.13,437V357.17a4,4,0,0,0,.29-.39c4.23-6,6.57-31,6.57-31a39.91,39.91,0,0,0,4.22.41c4.21.2,9,0,11.42-.12l1.5-.09c4.23,3.31,10,3.79,12.86,3.79a21.52,21.52,0,0,1,3,.22c8.27,1.16,10.79-9.83,10.79-9.83l3.27.74,8.85,2,3.07.69c-5.51,15.61,9,32.3,10.83,34.32l.19.21A30.61,30.61,0,0,1,613.32,373.57Z" transform="translate(0 -0.01)" style="fill: #688ea7"/>
  <path d="M551.22,326.23c0,6.49-1.55,28-11.07,31.11v-.17a4,4,0,0,0,.29-.39c4.23-6,6.57-31,6.57-31A37.09,37.09,0,0,0,551.22,326.23Z" transform="translate(0 -0.01)" style="fill: #fff;opacity: 0.30000001192092896;isolation: isolate"/>
  <path d="M616.85,357.94c-17.92-.92-15.8-24.36-13.9-35l3.07.69C600.51,339.23,615,355.92,616.85,357.94Z" transform="translate(0 -0.01)" style="fill: #fff;opacity: 0.30000001192092896;isolation: isolate"/>
  <g style="opacity: 0.10000000149011612">
    <path d="M617,358.64a.24.24,0,0,0-.19-.21c-4-1,.44.45-4-1-.17-.06.24-.73.24-.73a30.59,30.59,0,0,1-3.72,15.42,90.86,90.86,0,0,0-11,44.12v2.16s5.39,14.69,0,14.69-4.9,7.35-11.75,8.82c-6.28,1.35-26.93,10.08-36,8.15.56.41,1.13.8,1.72,1.15,7.35,4.41,31.35-5.88,38.2-7.35s6.37-8.82,11.75-8.82,0-14.69,0-14.69v-2.17a90.86,90.86,0,0,1,11-44.12A30.62,30.62,0,0,0,617,358.64Z" transform="translate(0 -0.01)"/>
    <path d="M565.32,327c-.23-.16-.47-.33-.69-.5h-.52A12.37,12.37,0,0,0,565.32,327Z" transform="translate(0 -0.01)"/>
  </g>
  <path d="M719.89,572.18,714,585.4a82,82,0,0,0-5.5-7.95h0a51.67,51.67,0,0,0-10-10.09A101.15,101.15,0,0,1,687,557.54c-2.76-2.67-5.78-5.32-7.92-6.43a24,24,0,0,1-3.55-2.18c-3.9-3-11.56-9.15-13.37-13.48,0,0-15.67-14.69-22.53-17.63l-6.84-8-7.86-9.17L645,480.57l5.91,8.27,8.79,12.3a80.2,80.2,0,0,0,13.55,13.26A90.79,90.79,0,0,1,687,526.73a132.83,132.83,0,0,1,17.2,23.41l12.63,17.75.09.14,2,2.79Z" transform="translate(0 -0.01)" style="fill: #db8b8b"/>
  <path d="M595.49,573.65l-7.84,18.61-6.36-6.86-2.62-5.5-2.28-4.79-11.27-6.86-11-7.18a22.86,22.86,0,0,0-6.15-2.82c-9.51-2.78-7.87-8.12-7.87-8.12l.87-13.86.6-9.65,26-2.94-1.3,7.35-1.64,9.3c9.8,1.47,16.16,17.63,16.16,17.63,3.87,5.81,7.54,8.22,9.59,9.18a7.67,7.67,0,0,0,1.68.61Z" transform="translate(0 -0.01)" style="fill: #db8b8b"/>
  <path d="M716.94,568l-.23-.13h.14Z" transform="translate(0 -0.01)" style="opacity: 0.10000000149011612;isolation: isolate"/>
  <path d="M719.89,572.18,714,585.4a82,82,0,0,0-5.5-7.95c.9.86,5.93,5.44,7.54,1.26a51,51,0,0,1,2.13-5,5.48,5.48,0,0,0,.73-2.85Z" transform="translate(0 -0.01)" style="opacity: 0.10000000149011612;isolation: isolate"/>
  <path d="M719.41,571.31l-2-2.79-.09-.14-12.63-17.75a132.84,132.84,0,0,0-17.23-23.39,90.79,90.79,0,0,0-13.8-12.33,80.2,80.2,0,0,1-13.55-13.26l-8.76-12.25-5.91-8.27-.86.86,5.29,7.41,8.79,12.3a80,80,0,0,0,13.56,13.22A90.79,90.79,0,0,1,686,527.25a132.61,132.61,0,0,1,17.2,23.38l12.65,17.77.09.14,2,2.79,1,1.36-5.26,11.84c.55.87.86,1.38.86,1.38l5.88-13.22Z" transform="translate(0 -0.01)" style="opacity: 0.10000000149011612;isolation: isolate"/>
  <path d="M595.49,573.65l-7.84,18.61-6.36-6.86-2.62-5.5,7.52,5c7.39-4.62,4.54-16.43,4.2-17.75a7.67,7.67,0,0,0,1.68.61Z" transform="translate(0 -0.01)" style="opacity: 0.10000000149011612;isolation: isolate"/>
  <path d="M590.84,567.53s3.67,13-4.16,17.88l-10.29-6.86s-2,4.9,4.41,11.27A20.83,20.83,0,0,1,587.66,607s1,11.75,6.86,8.82c0,0,9.31-2,8.82-18.12,0,0-3.71-13.45.61-19.14l.37-.45c4.9-5.39-1.47-13.71-1.47-13.71S591.33,559.7,590.84,567.53Z" transform="translate(0 -0.01)" style="fill: #535461"/>
  <path d="M602.35,434.56c-5.39,0-4.9,7.35-11.75,8.82s-30.86,11.75-38.2,7.35S540.16,437,540.16,437v-1c12.24,6.37,27.43,0,27.43,0,10.82,2.08,29.43-12.11,34.77-16.42v.25S607.73,434.56,602.35,434.56Z" transform="translate(0 -0.01)" style="opacity: 0.10000000149011612;isolation: isolate"/>
  <path d="M541.61,526.63l26-2.94-1.3,7.35c-8,3.74-19.64,4.89-25.26,5.24Z" transform="translate(0 -0.01)" style="opacity: 0.10000000149011612;isolation: isolate"/>
  <path d="M650.86,488.86c-1.23,9-11.29,16.73-18.13,21l-7.86-9.17L645,480.61Z" transform="translate(0 -0.01)" style="opacity: 0.10000000149011612;isolation: isolate"/>
  <path d="M567.57,437s-15.18,6.37-27.43,0l-2.45,33.31s.49,14.69-1.47,23,1.47,42.12,1.47,42.12,30.37-.49,36.24-11.75c0,0,12.73-25.47,10.29-34.28l26.45,5.88,15.68,17.12s26.94-12.73,24.49-28.41L614.59,441.4l-10.77-22S580.31,439.45,567.57,437Z" transform="translate(0 -0.01)" style="fill: #688ea7"/>
  <path d="M626.35,512.4l-15.67-17.14-26.46-5.86c.06.22.11.45.16.69a9.62,9.62,0,0,1,.14,1.42c.41,10.19-10.58,32.18-10.58,32.18-5.88,11.27-36.24,11.75-36.24,11.75s-3.48-33.78-1.48-42.11,1.47-23,1.47-23l2.36-32.07.09-1.23a26.31,26.31,0,0,0,11,2.8,42.5,42.5,0,0,0,15.91-2.59l.52-.21c.29.05.58.1.88.13,10.52,1.16,27.39-11.38,33.26-16.05,1.33-1.06,2.1-1.71,2.1-1.71l10.78,22L650.83,484a12.15,12.15,0,0,1,.14,1.48C651.6,500.49,626.35,512.4,626.35,512.4Z" transform="translate(0 -0.01)" style="opacity: 0.10000000149011612;isolation: isolate"/>
  <path d="M594.1,320.93c-10.91,19.71-27,8.8-31.46,5.18l1.5-.09c4.23,3.31,10,3.79,12.86,3.79a21.52,21.52,0,0,1,3,.22c8.27,1.16,10.79-9.83,10.79-9.83Z" transform="translate(0 -0.01)" style="fill: #fff;opacity: 0.30000001192092896;isolation: isolate"/>
  <path d="M717.22,568.4a9.67,9.67,0,0,1,8.57,4.28s12.72,10.72,19.57,11.72c0,0,20.57,8.82,14.69,21.06s-20.08,1-20.08,1-15.18-13.71-20.08-12.73c0,0-13.47-8.08-11-15.92,0,0,5.9,6,7.68,1.39a48.65,48.65,0,0,1,2.12-5C719.64,572.32,720.13,569.87,717.22,568.4Z" transform="translate(0 -0.01)" style="fill: #535461"/>
  <path d="M564.35,437.12c-5.12,1.49-15.42,3.48-24.2-1.09l-.16,2.19C550.64,442.09,562.42,437.87,564.35,437.12Z" transform="translate(0 -0.01)" style="opacity: 0.10000000149011612;isolation: isolate"/>
  <path d="M575.48,435.4a17.39,17.39,0,0,1-7.91.67s-1.08.45-2.88,1C567.82,437.6,571.58,436.83,575.48,435.4Z" transform="translate(0 -0.01)" style="opacity: 0.10000000149011612;isolation: isolate"/>
  <path d="M651,485.5c-.47,14.53-24.63,25.95-24.63,25.95l-.34-.37c6.69-3.67,23.87-14.4,21.89-27.06L611.65,441.4l-9.94-20.33c1.33-1.06,2.1-1.71,2.1-1.71l10.78,22L650.83,484A13.2,13.2,0,0,1,651,485.5Z" transform="translate(0 -0.01)" style="opacity: 0.10000000149011612;isolation: isolate"/>
  <path d="M581.29,489.4c2.45,8.82-10.29,34.28-10.29,34.28-1.74,3.33-5.61,5.72-10.21,7.43,5.84-1.74,11.05-4.39,13.15-8.41,0,0,11.3-22.6,10.56-32.59Z" transform="translate(0 -0.01)" style="opacity: 0.10000000149011612;isolation: isolate"/>
  <path d="M573,362.31c-6.9,0-12.49,8-12.49,17.88s5.59,17.88,12.49,17.88,12.49-8,12.49-17.88S579.86,362.31,573,362.31Zm0,28.41c-4.06,0-7.36-4.71-7.36-10.53s3.29-10.53,7.36-10.53,7.36,4.71,7.36,10.53S577,390.72,573,390.72Z" transform="translate(0 -0.01)" style="fill: #fff;opacity: 0.30000001192092896;isolation: isolate"/>
  <path d="M654.82,236.13v1.72a4,4,0,0,1-.07.92,30.35,30.35,0,0,1-5,14.37c-.19.29-.39.57-.59.85a29.51,29.51,0,0,1-24,12.38,19,19,0,0,1-2-.07c-.66-.07-1.23-.1-1.84-.18h0a29.65,29.65,0,0,1-20.92-13.29c-.16-.23-.31-.48-.45-.71v-.05a30.5,30.5,0,0,1-4.47-15.94,31.92,31.92,0,0,1,.32-4.48l.16-1a30.23,30.23,0,0,1,15.88-21.58l1.08-.53a29.39,29.39,0,0,1,22.51-.87,28.24,28.24,0,0,1,2.77,1.2h0a30.14,30.14,0,0,1,14.57,15.85c.1.23.18.45.26.68A30.65,30.65,0,0,1,654.82,236.13Z" transform="translate(0 -0.01)" style="fill: #f88787"/>
  <path d="M652.91,225.4a20.77,20.77,0,0,1-5.86.85h-1.12a10.57,10.57,0,0,1-1.4-.12,25,25,0,0,1-10.88-4h0c-8.73-8.9-17.28-11.94-21.9-13l1.08-.53a45,45,0,0,1,19.58,11.2,20.34,20.34,0,0,0,6.86,4.28,23.52,23.52,0,0,0,5.43,1.31c.4,0,.79.08,1.18.11h.79a19.62,19.62,0,0,0,6-.76A5.49,5.49,0,0,0,652.91,225.4Z" transform="translate(0 -0.01)" style="fill: #fff;opacity: 0.5;isolation: isolate"/>
  <path d="M654.77,237.85a4,4,0,0,1-.07.92,40,40,0,0,0-8.15-4l-.75-.27a100.53,100.53,0,0,0-21-4.64c-16.8-2.14-25.18-.14-29.17,1.76l.16-1c4.32-1.9,12.83-3.63,29.11-1.56a104,104,0,0,1,21,4.59l.75.27A41.66,41.66,0,0,1,654.77,237.85Z" transform="translate(0 -0.01)" style="fill: #fff;opacity: 0.5;isolation: isolate"/>
  <path d="M646.65,234a7.9,7.9,0,0,1-.09.82c-.17,1.37-.42,2.8-.74,4.29-.25,1.13-.52,2.21-.82,3.25l-.24.8c-3.8,12.17-11.53,18.34-17.64,21.42a36.35,36.35,0,0,1-4,1.74l-1.84-.18h0a36,36,0,0,0,5.58-2.26c6-3,13.59-9.13,17.29-21.18.08-.24.15-.49.22-.74.28-1,.53-2,.76-3,.33-1.5.58-3,.75-4.4a7.61,7.61,0,0,1,.09-.82,35.77,35.77,0,0,0,0-7.46,4.91,4.91,0,0,0-.09-.77,25.13,25.13,0,0,0-6.66-14.38,25.57,25.57,0,0,0-4-3.41,28.24,28.24,0,0,1,2.77,1.2h0a22.73,22.73,0,0,1,1.74,1.68,26,26,0,0,1,6.81,14.93,6.56,6.56,0,0,0,.09.76A37.49,37.49,0,0,1,646.65,234Z" transform="translate(0 -0.01)" style="fill: #fff;opacity: 0.5;isolation: isolate"/>
  <path d="M649.67,253.15c-.19.29-.39.57-.59.85a40.13,40.13,0,0,0-4-10.41,2.12,2.12,0,0,0-.35-.44,3,3,0,0,0-.67-.45c-3.85-1.91-15.35,1.29-23.9,5.91-6.58,3.56-15.19,4.19-19.9,4.23l-.45-.71v0c4.5,0,13.34-.54,20-4.14,8-4.3,19.9-8,24.48-6a4.7,4.7,0,0,1,.69.39,2.85,2.85,0,0,1,.78.84A41.17,41.17,0,0,1,649.67,253.15Z" transform="translate(0 -0.01)" style="fill: #fff;opacity: 0.5;isolation: isolate"/>
  <rect x="259.22" y="744.53" width="44" height="5" style="opacity: 0.10000000149011612;isolation: isolate"/>
  <polygon points="181.88 95.56 79.22 199.03 79.22 223.53 195.72 91.09 181.88 95.56" style="fill: #fff;opacity: 0.30000001192092896;isolation: isolate"/>
  <polygon points="217.31 85.61 79.22 260.53 79.22 286.46 251.76 80.47 217.31 85.61" style="fill: #fff;opacity: 0.30000001192092896;isolation: isolate"/>
</svg>
