<svg xmlns="http://www.w3.org/2000/svg" xmlns:xlink="http://www.w3.org/1999/xlink" viewBox="0 0 1144.65 798.88">
  <defs>
    <linearGradient id="a" x1="554.09" y1="460.65" x2="554.09" y2="460.9" gradientTransform="translate(936.2 747.45) rotate(180)" gradientUnits="userSpaceOnUse">
      <stop offset="0" stop-color="gray" stop-opacity="0.25"/>
      <stop offset="0.54" stop-color="gray" stop-opacity="0.12"/>
      <stop offset="1" stop-color="gray" stop-opacity="0.1"/>
    </linearGradient>
    <linearGradient id="b" x1="291.78" y1="122.48" x2="291.78" y2="513.97" xlink:href="#a"/>
    <linearGradient id="c" x1="298.3" y1="527.98" x2="298.3" y2="602.98" xlink:href="#a"/>
    <linearGradient id="d" x1="796.24" y1="268.43" x2="796.24" y2="331.35" xlink:href="#a"/>
    <linearGradient id="e" x1="819.34" y1="230.62" x2="819.34" y2="293.54" xlink:href="#a"/>
  </defs>
  <title>football</title>
  <path d="M.39,69.19c3.72,31.61,29.81,56.64,36,87.86a84.68,84.68,0,0,1,1.42,12.4c.89,17.93-2.66,36.23-.83,54.19,3.41,33.68,23.88,60,49.87,82.81,19.66,17.21,42.48,32.35,63.47,47,53.44,37.33,103.56,84.46,125.51,145.84,14.63,40.93,15.75,85.41,26.49,127.53s35.2,85.22,76.54,98.65c44.37,14.42,93.26-9.62,138.92-.12,49,10.2,83.75,56.51,132.1,69.59,61.43,16.62,122.65-24.22,185.71-32.73,30.28-4.09,61.1-.62,91.54-3.24a230.08,230.08,0,0,0,96.07-30.52c10-5.87,20.11-13.08,24.76-23.74,4-9.21,3.39-19.71,2.16-29.68-4.6-37-16.24-77.22,2.07-109.74,16.89-30,57.82-51.46,51.75-85.33-3.65-20.39-23.69-33.12-42.27-42.25-38.32-18.83-79.14-33.57-113.39-59-24.5-18.22-45.6-43.64-54.6-72.23A96.31,96.31,0,0,1,889.2,271c1.26-18.9,7.8-40.12-3.6-55.25-4.94-6.56-12.51-10.59-20.12-13.67-28.7-11.6-60.58-12.27-90.42-20.51a124.7,124.7,0,0,1-29.26-12.16c-18.2-10.54-32.85-26.07-36.39-46.34-2.07-11.88-.23-24.85-6.16-35.35-10-17.8-29.77-25.24-51.85-27.66-27.33-3-58.28,1.69-79,4l-2.07.22c-26.61,2.77-53-3.12-78.93-12-28-9.51-55.37-22.45-82-31.65q-3.75-1.3-7.48-2.49A383,383,0,0,0,342.4,4.33,389.13,389.13,0,0,0,256.4,1,381.25,381.25,0,0,0,213,6.65q-6.32,1.2-12.62,2.57c-24.42,5.23-48.71,11.62-73.62,12H121.4c-29.71-.51-60.09-8.06-88.28,1.06C20.3,26.45,8,34.65,2.85,47.09,0,54-.48,61.75.39,69.19Z" transform="translate(0.01 0)" style="fill: #688ea7;opacity: 0.5"/>
  <path d="M37.81,169.45H63.48a34,34,0,0,1,22.34-30,24,24,0,1,1,23.15,0,34,34,0,0,1,22.34,30h.22a34,34,0,0,1,22.28-29A24,24,0,1,1,189,115a33.86,33.86,0,0,1,9.83-5.59,24,24,0,1,1,23.15,0,34,34,0,0,1,22.42,32v28h11v-22a34,34,0,0,1,22.42-32,24,24,0,1,1,23.15,0,34.1,34.1,0,0,1,19.6,18.44,34.09,34.09,0,0,1,16.28-12.44,24,24,0,1,1,23.15,0,34.1,34.1,0,0,1,17.42,14.23v-4.23a34,34,0,0,1,22.42-32,24,24,0,1,1,23.15,0,34,34,0,0,1,22.42,32v38h12a34.08,34.08,0,0,1,19.39-18,24,24,0,1,1,23.15,0,34,34,0,0,1,6.76,3.35,34,34,0,0,1,22.14-27.35,24,24,0,1,1,23.15,0,34.06,34.06,0,0,1,21,22.4,34,34,0,0,1,13.82-9.4,24,24,0,1,1,23.15,0,33.9,33.9,0,0,1,10.08,5.8,34.11,34.11,0,0,1,19.8-18.8,24,24,0,1,1,23.15,0,34,34,0,0,1,22.42,32v10h60.4a124.43,124.43,0,0,0,29.25,12.15c29.84,8.24,61.72,8.91,90.42,20.51,7.61,3.08,15.18,7.11,20.12,13.67,11.4,15.13,4.86,36.35,3.6,55.25a96.21,96.21,0,0,0,4.45,35.42H86.85c-26-22.76-46.46-49.13-49.87-82.81C35.2,205.69,38.7,187.39,37.81,169.45Z" transform="translate(0.01 0)" style="opacity: 0.20000000298023224;isolation: isolate"/>
  <polyline points="993.9 76.97 993.9 464.96 973.9 451.96 973.9 76.97 961.9 76.97 956.9 438.96 937.9 424.96 950.9 71.97" style="fill: none;stroke: #e0e0e0;stroke-miterlimit: 10"/>
  <line x1="1018.92" y1="104.97" x2="937.92" y2="109.47" style="fill: none;stroke: #e0e0e0;stroke-miterlimit: 10"/>
  <line x1="1013.92" y1="124.97" x2="937.92" y2="127.97" style="fill: none;stroke: #e0e0e0;stroke-miterlimit: 10"/>
  <line x1="1013.92" y1="148.97" x2="937.92" y2="150.97" style="fill: none;stroke: #e0e0e0;stroke-miterlimit: 10"/>
  <line x1="1013.92" y1="170.97" x2="937.92" y2="173.97" style="fill: none;stroke: #e0e0e0;stroke-miterlimit: 10"/>
  <line x1="1013.92" y1="195.97" x2="934.92" y2="195.97" style="fill: none;stroke: #e0e0e0;stroke-miterlimit: 10"/>
  <line x1="1013.92" y1="220.97" x2="932.92" y2="217.97" style="fill: none;stroke: #e0e0e0;stroke-miterlimit: 10"/>
  <line x1="1013.92" y1="243.97" x2="932.92" y2="239.97" style="fill: none;stroke: #e0e0e0;stroke-miterlimit: 10"/>
  <line x1="1013.92" y1="268.97" x2="932.92" y2="262.97" style="fill: none;stroke: #e0e0e0;stroke-miterlimit: 10"/>
  <line x1="1015.92" y1="290.97" x2="929.92" y2="282.97" style="fill: none;stroke: #e0e0e0;stroke-miterlimit: 10"/>
  <line x1="1015.92" y1="315.97" x2="929.92" y2="302.97" style="fill: none;stroke: #e0e0e0;stroke-miterlimit: 10"/>
  <line x1="1015.92" y1="344.97" x2="926.92" y2="328.97" style="fill: none;stroke: #e0e0e0;stroke-miterlimit: 10"/>
  <line x1="1015.92" y1="377.97" x2="926.92" y2="351.97" style="fill: none;stroke: #e0e0e0;stroke-miterlimit: 10"/>
  <line x1="1017.92" y1="411.97" x2="923.92" y2="374.97" style="fill: none;stroke: #e0e0e0;stroke-miterlimit: 10"/>
  <line x1="1017.92" y1="442.97" x2="923.92" y2="396.97" style="fill: none;stroke: #e0e0e0;stroke-miterlimit: 10"/>
  <polyline points="915.9 75.97 899.9 416.96 878.9 416.96 891.9 75.97 868.9 75.97 853.9 416.96 830.9 416.96 843.9 75.97 815.9 75.97 805.9 416.96 780.9 416.96 791.9 78.97 765.9 78.97 759.9 416.96 736.9 416.96 743.9 75.97 720.9 75.97 715.9 416.96 693.9 416.96 698.9 75.97 672.9 75.97 672.9 416.96 646.9 416.96 646.9 75.97 622.9 75.97 626.9 416.96 605.9 416.96 599.9 75.97 575.9 75.97 583.9 416.96 562.9 416.96 552.9 75.97 531.9 75.97 539.9 416.96 520.9 416.96 505.9 75.97 485.9 75.97 501.9 416.96 481.9 416.96 459.9 75.97 435.9 75.97 463.9 416.96 444.9 416.96 417.9 75.97 398.9 75.97 426.9 416.96 405.9 416.96 378.9 71.97 359.9 71.97 390.9 416.96 370.9 416.96 338.9 71.97" style="fill: none;stroke: #e0e0e0;stroke-miterlimit: 10"/>
  <polyline points="293.9 76.97 323.9 422.96 308.9 434.96 285.9 76.97 269.9 76.97 285.9 447.96 262.9 462.96 253.91 71.97" style="fill: none;stroke: #e0e0e0;stroke-miterlimit: 10"/>
  <line x1="231.92" y1="115.97" x2="323.92" y2="115.97" style="fill: none;stroke: #e0e0e0;stroke-miterlimit: 10"/>
  <line x1="231.92" y1="140.97" x2="323.92" y2="140.97" style="fill: none;stroke: #e0e0e0;stroke-miterlimit: 10"/>
  <line x1="231.92" y1="168.97" x2="323.92" y2="165.97" style="fill: none;stroke: #e0e0e0;stroke-miterlimit: 10"/>
  <line x1="231.92" y1="192.97" x2="327.92" y2="187.97" style="fill: none;stroke: #e0e0e0;stroke-miterlimit: 10"/>
  <line x1="231.92" y1="219.97" x2="327.92" y2="215.97" style="fill: none;stroke: #e0e0e0;stroke-miterlimit: 10"/>
  <line x1="231.92" y1="248.97" x2="331.92" y2="243.97" style="fill: none;stroke: #e0e0e0;stroke-miterlimit: 10"/>
  <line x1="231.92" y1="276.97" x2="331.92" y2="266.97" style="fill: none;stroke: #e0e0e0;stroke-miterlimit: 10"/>
  <line x1="231.92" y1="308.97" x2="331.92" y2="284.97" style="fill: none;stroke: #e0e0e0;stroke-miterlimit: 10"/>
  <line x1="231.92" y1="336.97" x2="335.92" y2="301.97" style="fill: none;stroke: #e0e0e0;stroke-miterlimit: 10"/>
  <line x1="231.92" y1="365.97" x2="335.92" y2="325.97" style="fill: none;stroke: #e0e0e0;stroke-miterlimit: 10"/>
  <line x1="228.92" y1="393.97" x2="332.45" y2="350.52" style="fill: none;stroke: #e0e0e0;stroke-miterlimit: 10"/>
  <line x1="228.92" y1="425.97" x2="335.92" y2="371.97" style="fill: none;stroke: #e0e0e0;stroke-miterlimit: 10"/>
  <line x1="228.92" y1="454.97" x2="338.92" y2="393.97" style="fill: none;stroke: #e0e0e0;stroke-miterlimit: 10"/>
  <line x1="937.92" y1="104.97" x2="323.92" y2="109.97" style="fill: none;stroke: #e0e0e0;stroke-miterlimit: 10"/>
  <line x1="937.42" y1="122.97" x2="323.42" y2="127.97" style="fill: none;stroke: #e0e0e0;stroke-miterlimit: 10"/>
  <line x1="936.92" y1="140.97" x2="322.92" y2="145.97" style="fill: none;stroke: #e0e0e0;stroke-miterlimit: 10"/>
  <line x1="936.42" y1="158.97" x2="322.42" y2="163.97" style="fill: none;stroke: #e0e0e0;stroke-miterlimit: 10"/>
  <line x1="935.92" y1="176.97" x2="321.92" y2="181.97" style="fill: none;stroke: #e0e0e0;stroke-miterlimit: 10"/>
  <line x1="935.42" y1="194.97" x2="329.42" y2="199.97" style="fill: none;stroke: #e0e0e0;stroke-miterlimit: 10"/>
  <line x1="934.92" y1="212.97" x2="328.92" y2="217.97" style="fill: none;stroke: #e0e0e0;stroke-miterlimit: 10"/>
  <line x1="934.42" y1="230.97" x2="328.42" y2="235.97" style="fill: none;stroke: #e0e0e0;stroke-miterlimit: 10"/>
  <line x1="933.92" y1="248.97" x2="327.92" y2="253.97" style="fill: none;stroke: #e0e0e0;stroke-miterlimit: 10"/>
  <line x1="933.42" y1="266.97" x2="333.42" y2="271.97" style="fill: none;stroke: #e0e0e0;stroke-miterlimit: 10"/>
  <line x1="932.92" y1="284.97" x2="332.92" y2="289.97" style="fill: none;stroke: #e0e0e0;stroke-miterlimit: 10"/>
  <line x1="932.42" y1="302.97" x2="332.42" y2="307.97" style="fill: none;stroke: #e0e0e0;stroke-miterlimit: 10"/>
  <line x1="931.92" y1="320.97" x2="335.92" y2="325.97" style="fill: none;stroke: #e0e0e0;stroke-miterlimit: 10"/>
  <line x1="931.42" y1="338.97" x2="335.42" y2="343.97" style="fill: none;stroke: #e0e0e0;stroke-miterlimit: 10"/>
  <line x1="930.92" y1="356.97" x2="337.92" y2="361.97" style="fill: none;stroke: #e0e0e0;stroke-miterlimit: 10"/>
  <line x1="930.42" y1="374.97" x2="337.42" y2="379.97" style="fill: none;stroke: #e0e0e0;stroke-miterlimit: 10"/>
  <line x1="929.92" y1="392.97" x2="336.92" y2="397.97" style="fill: none;stroke: #e0e0e0;stroke-miterlimit: 10"/>
  <polyline points="1017.9 481.96 926.9 416.96 335.9 416.96 231.91 481.96" style="fill: none;stroke: #e0e0e0;stroke-miterlimit: 10;stroke-width: 3px"/>
  <path d="M1023.55,411.63s2.31-68.26,39.23-106.81a103.49,103.49,0,0,0,28.38-59A174.27,174.27,0,0,0,1092,214" transform="translate(0.01 0)" style="fill: none;stroke: #535461;stroke-miterlimit: 10;stroke-width: 2px"/>
  <path d="M1115.15,189.58c-2.53,7.62-23.65,25.14-23.65,25.14s-6.47-26.68-3.94-34.3a14.54,14.54,0,0,1,27.6,9.15Z" transform="translate(0.01 0)" style="fill: #688ea7"/>
  <path d="M1124,239.36c-6.26,5-33.52,8.25-33.52,8.25s9.07-25.91,15.33-30.93A14.54,14.54,0,0,1,1124.45,239l-.49.39Z" transform="translate(0.01 0)" style="fill: #688ea7"/>
  <path d="M1099,311.17c-7.94,1.17-33.1-9.8-33.1-9.8s20.91-17.79,28.85-19a14.54,14.54,0,0,1,4.25,28.76Z" transform="translate(0.01 0)" style="fill: #688ea7"/>
  <path d="M1068,361.25c-7.63,2.5-34.28-4.07-34.28-4.07s17.6-21.06,25.23-23.57a14.54,14.54,0,1,1,9.59,27.45l-.54.18Z" transform="translate(0.01 0)" style="fill: #688ea7"/>
  <path d="M1061,239.45c3.71,7.12,27.35,21.07,27.35,21.07s2.15-27.36-1.55-34.49a14.54,14.54,0,1,0-25.8,13.42Z" transform="translate(0.01 0)" style="fill: #688ea7"/>
  <path d="M1025.36,298.51c5.67,5.69,32.4,11.92,32.4,11.92s-6.13-26.75-11.8-32.44a14.54,14.54,0,0,0-20.6,20.52Z" transform="translate(0.01 0)" style="fill: #688ea7"/>
  <path d="M998.62,360.64c4.62,6.56,29.92,17.22,29.92,17.22s-1.52-27.41-6.15-34a14.54,14.54,0,0,0-23.92,16.53l.15.22Z" transform="translate(0.01 0)" style="fill: #688ea7"/>
  <path d="M1038.55,472.63s2.31-68.26,39.23-106.81a103.49,103.49,0,0,0,28.38-59A174.27,174.27,0,0,0,1107,275" transform="translate(0.01 0)" style="fill: none;stroke: #535461;stroke-miterlimit: 10;stroke-width: 2px"/>
  <path d="M1130.15,250.58c-2.53,7.62-23.65,25.14-23.65,25.14s-6.47-26.68-3.94-34.3a14.54,14.54,0,0,1,27.6,9.15Z" transform="translate(0.01 0)" style="fill: #688ea7"/>
  <path d="M1139,300.36c-6.26,5-33.52,8.25-33.52,8.25s9.07-25.91,15.33-30.93A14.54,14.54,0,0,1,1139.45,300l-.49.39Z" transform="translate(0.01 0)" style="fill: #688ea7"/>
  <path d="M1114,372.17c-7.94,1.17-33.1-9.8-33.1-9.8s20.91-17.79,28.85-19a14.54,14.54,0,0,1,4.25,28.76Z" transform="translate(0.01 0)" style="fill: #688ea7"/>
  <path d="M1083,422.25c-7.63,2.5-34.28-4.07-34.28-4.07s17.6-21.06,25.23-23.57a14.54,14.54,0,1,1,9.59,27.45l-.54.18Z" transform="translate(0.01 0)" style="fill: #688ea7"/>
  <path d="M1076,300.45c3.71,7.12,27.35,21.07,27.35,21.07s2.15-27.36-1.55-34.49a14.54,14.54,0,1,0-25.8,13.42Z" transform="translate(0.01 0)" style="fill: #688ea7"/>
  <path d="M1040.36,359.51c5.67,5.69,32.4,11.92,32.4,11.92s-6.13-26.75-11.8-32.44a14.54,14.54,0,0,0-20.6,20.52Z" transform="translate(0.01 0)" style="fill: #688ea7"/>
  <path d="M1013.62,421.64c4.62,6.56,29.92,17.22,29.92,17.22s-1.52-27.41-6.15-34a14.54,14.54,0,0,0-23.92,16.53l.15.22Z" transform="translate(0.01 0)" style="fill: #688ea7"/>
  <path d="M217.4,107.8c.49-19.35,13.89-36.35,32.8-40.5l.54-.11a11.26,11.26,0,0,1,2.32-.22h748.4A32,32,0,0,1,1029,82.29l.19.33a13.15,13.15,0,0,1,1.72,6.33l7,393h-24l-8-384s0-11-10-12c-1.53-.15-20.09-.26-50.41-.33L927.9,418h-10L937.45,85.61c-133.3-.26-459.57.07-611,.25L345.87,416h-10L318.43,85.87l-57.64.07a24.22,24.22,0,0,0-20.89,12l-8,384h-24Z" transform="translate(0.01 0)" style="fill: #e0e0e0"/>
  <path d="M207.77,490.05s-3.24-52.86,22.43-85.34a80.19,80.19,0,0,0,17.57-47.62,135.47,135.47,0,0,0-1.68-24.64" transform="translate(0.01 0)" style="fill: none;stroke: #535461;stroke-miterlimit: 10;stroke-width: 2px"/>
  <path d="M262.15,311.91c-1.39,6.07-16.41,21.15-16.41,21.15s-7-20.12-5.57-26.18a11.28,11.28,0,0,1,22,5h0Z" transform="translate(0.01 0)" style="fill: #688ea7"/>
  <path d="M272.61,349.69c-4.47,4.34-25.27,8.84-25.27,8.84s5.09-20.67,9.56-25a11.27,11.27,0,1,1,15.71,16.17h0Z" transform="translate(0.01 0)" style="fill: #688ea7"/>
  <path d="M258.66,407c-6,1.49-26.27-5.13-26.27-5.13s14.81-15.27,20.87-16.76a11.27,11.27,0,0,1,5.4,21.89Z" transform="translate(0.01 0)" style="fill: #688ea7"/>
  <path d="M238.34,447.9c-5.71,2.49-26.76-.62-26.76-.62s12-17.56,17.74-20a11.27,11.27,0,0,1,9.43,20.47l-.43.19Z" transform="translate(0.01 0)" style="fill: #688ea7"/>
  <path d="M224,354.45c3.38,5.23,22.66,14.25,22.66,14.25s-.35-21.28-3.74-26.51A11.27,11.27,0,1,0,224,354.45Z" transform="translate(0.01 0)" style="fill: #688ea7"/>
  <path d="M200.85,402.6c4.79,4,25.89,6.82,25.89,6.82s-6.7-20.2-11.5-24.18a11.27,11.27,0,1,0-14.39,17.36Z" transform="translate(0.01 0)" style="fill: #688ea7"/>
  <path d="M184.78,452.53c4.05,4.73,24.36,11.1,24.36,11.1s-3.19-21-7.25-25.77a11.28,11.28,0,1,0-17.12,14.68Z" transform="translate(0.01 0)" style="fill: #688ea7"/>
  <path d="M262.15,311.91c-1.39,6.07-16.41,21.15-16.41,21.15s-7-20.12-5.57-26.18a11.28,11.28,0,0,1,22,5h0Z" transform="translate(0.01 0)" style="fill: #fff;opacity: 0.5;isolation: isolate"/>
  <path d="M272.61,349.69c-4.47,4.34-25.27,8.84-25.27,8.84s5.09-20.67,9.56-25a11.27,11.27,0,1,1,15.71,16.17h0Z" transform="translate(0.01 0)" style="fill: #fff;opacity: 0.5;isolation: isolate"/>
  <path d="M258.66,407c-6,1.49-26.27-5.13-26.27-5.13s14.81-15.27,20.87-16.76a11.27,11.27,0,0,1,5.4,21.89Z" transform="translate(0.01 0)" style="fill: #fff;opacity: 0.5;isolation: isolate"/>
  <path d="M238.34,447.9c-5.71,2.49-26.76-.62-26.76-.62s12-17.56,17.74-20a11.27,11.27,0,0,1,9.43,20.47l-.43.19Z" transform="translate(0.01 0)" style="fill: #fff;opacity: 0.5;isolation: isolate"/>
  <path d="M224,354.45c3.38,5.23,22.66,14.25,22.66,14.25s-.35-21.28-3.74-26.51A11.27,11.27,0,1,0,224,354.45Z" transform="translate(0.01 0)" style="fill: #fff;opacity: 0.5;isolation: isolate"/>
  <path d="M200.85,402.6c4.79,4,25.89,6.82,25.89,6.82s-6.7-20.2-11.5-24.18a11.27,11.27,0,1,0-14.39,17.36Z" transform="translate(0.01 0)" style="fill: #fff;opacity: 0.5;isolation: isolate"/>
  <path d="M184.78,452.53c4.05,4.73,24.36,11.1,24.36,11.1s-3.19-21-7.25-25.77a11.28,11.28,0,1,0-17.12,14.68Z" transform="translate(0.01 0)" style="fill: #fff;opacity: 0.5;isolation: isolate"/>
  <g style="opacity: 0.10000000149011612">
    <path d="M382.2,286.8a2.54,2.54,0,0,1-.18-.25Z" transform="translate(0.01 0)" style="fill: url(#a)"/>
  </g>
  <path d="M547.54,300.45c-.19,6.37,3.76,8.76,3.76,8.76l36.9,32.68c14.24,5.16,16,32.23,16,32.23,1.4,2.5,2,6.84,2,12-.17,16-4.69,38.3-4.69,38.3l.13.21-.13.65.13.21-.13.65a39.74,39.74,0,0,0,2.29,3.31c-4,8.19-11.45,21.37-14.67,24.18-4.45,3.87-13.35,32.66-13.35,32.66l.29-.07-.29.93H576c-2.16,4.17-4.36,9.55-4.83,14.86A45.34,45.34,0,0,1,569,512.24a20.14,20.14,0,0,0-.33,11.93,52,52,0,0,1,1.74,9.59A59.92,59.92,0,0,0,575,551.91c4.07,9.67,9.46,22.88,9.74,25.54.15,1.44.5,3.56.9,5.75l-.23.06L575.79,605s-2.67,6-8,6a3.67,3.67,0,0,0-3.69,3.65,2.2,2.2,0,0,0,0,.44,3.74,3.74,0,0,0,.23,1.78h0v.06c0,.1.09.2.13.3l.09.17a2.29,2.29,0,0,0,.18.29l.12.17.22.27.15.17.26.26.18.17.3.24.22.16.35.22.26.16.39.2.3.15.43.18.34.14.48.16.38.12.54.13.43.1.59.1.47.08.65.07.51.06h4.11a9.83,9.83,0,0,0,1.59-.13c17.36-1.72,30.26-15,30.26-15v-.5h0v-.25l.06-.07s-1.12-17.29-7.47-21.2a53.22,53.22,0,0,1-1-9.75c0-12,3.56-24.07-6.23-43.84,0,0-.45-5.16,3.12-12.89a127.62,127.62,0,0,1,6.94-12.06l.44,0-.71.94s11.57-.86,12.46-8.6a8.82,8.82,0,0,1,.45-1.89c2.68-7.78,15.62-18.81,21.36-19.6,6.23-.86,18.69,13.75,23.59,24.07.28.59.57,1.15.86,1.66,4.78,8.41,10.71,6.51,10.71,6.51-.21-.25-.39-.49-.58-.74a5.41,5.41,0,0,0,.58-.12,20.36,20.36,0,0,1-1.45-2c4.45,4.82,9.18,9.26,11.24,11.85,4.45,5.59,2.23,9.45,2.23,11.17,0,7.75-10.24,30.51-7.57,43,1.32,6.17-.19,13.39-2.06,19.11h-.39c-7.57,2.86-8.45,13.12-8.39,18.28v.47h0v2.16h0v1.2s21.36,9.45,39.61,12c.64.09,1.25.16,1.84.21h.54l1.15.07h2.06a4.1,4.1,0,0,0,1-.08H713c.41,0,.8-.12,1.17-.2l.24-.06c.28-.07.54-.13.79-.21l.33-.11.59-.23.3-.14.52-.28.27-.21a4.83,4.83,0,0,0,.58-.43h0a6.14,6.14,0,0,0,.51-.51l.13-.16c.1-.12.19-.25.28-.38l.12-.2a3.37,3.37,0,0,0,.19-.38l.09-.2c0-.14.1-.29.14-.44v-.15a5.58,5.58,0,0,0,.09-.59v-.11a3.84,3.84,0,0,0,0-.48v-.19h0c.26-2.64-1.83-5.27-3.92-4.87-4.45.86-10.24-4.3-10.24-4.3L693,590.18c-.19-4.65.33-10.56,3.27-15.36,5.79-9.45,12.91-29.65,12.91-29.65s-.89-12.46,2.67-18.48,0-15.47,0-15.47l-10.89-21h2l-.39-.86H703s-13.35-29.65-18.69-33.09c-3.81-2.45-9.19-16.25-12-24,1.12-.59,1.74-1,1.74-1s3.12-37.39,3.12-61,16-33.09,16-33.09l37.07-21.94c9.79-3.87,11.13-13.75,11.13-13.75l-.11-.28c.08-.37.11-.58.11-.58l-.11-.28c.08-.37.11-.58.11-.58l-17.8-45.55c0,.14-.11.26-.16.39-1.26-7.85-5.15-20.14-17.2-21-17.8-1.29-24,7.74-20.47,8.6s18.69,6.88,18.69,6.88l6,9.67c-.39-.13-.61-.22-.61-.22a2.1,2.1,0,0,1,.87.63l.4.64c-.78-.22-1.26-.41-1.26-.41a1.87,1.87,0,0,1,.31.17l.25.16.23.23a2.73,2.73,0,0,1,.23.25c.08.1.15.21.23.32l.12.18a13.46,13.46,0,0,1-1.36-.44c4.66,1.5,6.61,29.77,7,37l-23,10.27s-23.14,0-32.93,5.59c-8.59,4.9-12.73.87-13.61-.19q.9,1.15,1.59,2.22h0l-.25-.17-.23-.16-.19-.15-.21-.18-.07-.06a36.31,36.31,0,0,1-3.94-12.16,20.28,20.28,0,0,0-.32-16.4,4.87,4.87,0,0,0,1.22.63,18.71,18.71,0,0,1-2-6c-.22-2.35.45-4.85-.55-7a6.44,6.44,0,0,0-.36-.63.28.28,0,0,0-.08-.23c-1-2.18-3.45-3.38-5-5.28-1-1.28-1.57-2.84-2.53-4.16a9.25,9.25,0,0,0-10.57-2.94c-1.46.59-2.82,1.58-4.4,1.61a9.82,9.82,0,0,1-2.41-.42,19,19,0,0,0-14.2,2.66,25.69,25.69,0,0,0-9.32,11,22,22,0,0,0-2.08,7,61,61,0,0,0,.12,7.65c.09,4.19-.53,8.59,1.26,12.4.11.24.25.45.37.68a.2.2,0,0,0,.07.18c1.7,3.63,5.26,6,8.67,8.29l4.41,2.91.5.33a24.09,24.09,0,0,0-3.8-.08c-6.68.43-20-6-20-6L569,295.9l6.78-27.82-.26.19.26-1-.26.19.26-1.05-.38.28,7.05-11.46s15.13-6,18.69-6.88-2.67-9.88-20.47-8.6c-13.1,1-16.56,15.39-17.47,23-.77-.85-1.22-1.47-1.22-1.47l-12.48,29.52a21,21,0,0,0-2,8.86C547.53,299.9,547.53,300.19,547.54,300.45Zm100.86,15,.36.54h0Zm-35.67.12a6,6,0,0,0,2.57-1.7,21.82,21.82,0,0,0,3.44,1,14.37,14.37,0,0,1-1.33,3.13c-.17-.67-.25-1.08-.25-1.08a42.73,42.73,0,0,0-4.43-1.36Zm-7.53,187.1c1-1.61,2-3.18,3-4.66A43.27,43.27,0,0,1,605.2,502.67Z" transform="translate(0.01 0)" style="fill: url(#b)"/>
  <path d="M696.08,484.78l12.75,25.5s3.4,9.35,0,15.3-2.55,18.28-2.55,18.28-6.8,20-12.33,29.33-2.13,23-2.13,23l-22.1,2.55s8.5-16.58,6-28.91S683,535,683,527.32c0-1.7,2.13-5.53-2.13-11.05s-20.4-19.55-20-27.63Z" transform="translate(0.01 0)" style="fill: #f7bbc3"/>
  <path d="M583.44,478.83s-8.16,11.3-9.11,22.3a46.43,46.43,0,0,1-2,10.11A20.53,20.53,0,0,0,572,523a52.68,52.68,0,0,1,1.66,9.49,61,61,0,0,0,4.34,18c3.89,9.57,9,22.63,9.3,25.26.43,4.25,2.55,14.45,2.55,14.45l17,6.38s-5.1-12.33-5.1-24.23,3.4-23.8-6-43.36c0,0-.43-5.1,3-12.75s16.58-27.63,16.58-27.63Z" transform="translate(0.01 0)" style="fill: #f7bbc3"/>
  <path d="M610.92,494c1.4,1.52-5.81,11.2-5.81,11.2s11-.85,11.9-8.5a9.22,9.22,0,0,1,.43-1.87c2.56-7.69,14.92-18.6,20.4-19.38,6-.85,17.85,13.6,22.53,23.8.27.59.54,1.13.82,1.64,4.57,8.32,10.23,6.44,10.23,6.44-3-3.7-3.62-6.63-2.68-9,3.72-9.17,31.58-8.9,31.58-8.9s-12.75-29.33-17.85-32.73-13.18-28.91-13.18-28.91S608.5,421,608.08,424s-12.33,26.36-16.58,30.18-12.74,32.32-12.74,32.32c14.45-4.25,30.39,6.16,32.09,7.44Z" transform="translate(0.01 0)" style="opacity: 0.10000000149011612;isolation: isolate"/>
  <path d="M610.92,493.14c1.4,1.52-5.81,11.2-5.81,11.2s11-.85,11.9-8.5a9.22,9.22,0,0,1,.43-1.87c2.56-7.69,14.92-18.6,20.4-19.38,6-.85,17.85,13.6,22.53,23.8.27.59.54,1.13.82,1.64,4.57,8.32,10.23,6.44,10.23,6.44-3-3.7-3.62-6.63-2.68-9,3.72-9.17,31.58-8.9,31.58-8.9s-12.75-29.33-17.85-32.73-13.18-28.91-13.18-28.91-60.79-6.8-61.21-3.83-12.33,26.36-16.58,30.18-12.75,32.31-12.75,32.31c14.45-4.25,30.39,6.16,32.09,7.44Z" transform="translate(0.01 0)" style="fill: #565171"/>
  <path d="M690.77,588.29l11.69,19.77s5.53,5.1,9.78,4.25,8.5,11.9-8.93,9.35-37.83-11.9-37.83-11.9-1.91-17.22,7.86-21Z" transform="translate(0.01 0)" style="opacity: 0.10000000149011612;isolation: isolate"/>
  <path d="M587.9,581.45l-9.14,21.47s-2.55,6-7.65,6-6.8,10.63,9.78,8.93S609.8,603,609.8,603s-1.28-20.4-8.93-21.68A32.56,32.56,0,0,0,587.9,581.45Z" transform="translate(0.01 0)" style="opacity: 0.10000000149011612;isolation: isolate"/>
  <path d="M690.77,589.14l11.69,19.77s5.53,5.1,9.78,4.25,8.5,11.9-8.93,9.35-37.83-11.9-37.83-11.9-1.91-17.22,7.86-21Z" transform="translate(0.01 0)" style="fill: #b77983"/>
  <path d="M587.9,582.34l-9.14,21.47s-2.55,6-7.65,6-6.8,10.63,9.78,8.93,28.91-14.88,28.91-14.88-1.28-20.4-8.93-21.68A32.56,32.56,0,0,0,587.9,582.34Z" transform="translate(0.01 0)" style="fill: #b77983"/>
  <g style="opacity: 0.10000000149011612">
    <path d="M610.2,423.15c-.43,3-12.33,26.36-16.58,30.18-3.9,3.51-11.39,27.82-12.59,31.76-.77.15-1.53.32-2.29.54,0,0,8.5-28.48,12.75-32.31s16.15-27.21,16.58-30.18c.08-.59,2.57-.8,6.48-.74C611.91,422.45,610.28,422.67,610.2,423.15Z" transform="translate(0.01 0)"/>
    <path d="M640,474.58c6-.85,17.85,13.6,22.53,23.8.27.59.54,1.13.82,1.64,2.64,4.8,5.63,6.2,7.7,6.53-1.37.25-6,.46-9.83-6.53-.28-.51-.55-1-.82-1.64-4.29-9.36-14.65-22.28-20.93-23.7Z" transform="translate(0.01 0)"/>
    <path d="M610.92,493.14l-.07-.07c-1.37-1-12-8-23.65-8.43,12.45-.43,24.32,7.34,25.78,8.43l.07.07c1.23,1.34-4.19,9-5.52,10.8a19.51,19.51,0,0,1-2.41.39S612.32,494.66,610.92,493.14Z" transform="translate(0.01 0)"/>
  </g>
  <path d="M720.31,262.89s0-25.93-17-27.21-23,7.65-19.55,8.5,17.85,6.8,17.85,6.8L711,266.71Z" transform="translate(0.01 0)" style="fill: #f7bbc3"/>
  <path d="M566.43,268.84s0-25.93,17-27.21,23,7.65,19.55,8.5-17.85,6.8-17.85,6.8l-9.35,15.73Z" transform="translate(0.01 0)" style="fill: #f7bbc3"/>
  <path d="M643.37,295.62s-1.28,17,9.35,26.78-24.65,22.1-24.65,22.1l-15.73-18.7s12.75-7.65,6-20.83Z" transform="translate(0.01 0)" style="fill: #f7bbc3"/>
  <path d="M646.77,315.6s3.83,6,13.18.43,31.46-5.58,31.46-5.58l22.1-10.2s-1.7-36.56-6.8-38.26c0,0,10.2,4.25,13.18-4.25l17,45.06s-1.28,9.78-10.63,13.6L691,338.08s-15.3,9.35-15.3,32.73-3,60.36-3,60.36-49.31,29.76-69.29-5.1c0,0,8.08-41.23,2.55-51.44,0,0-1.7-26.78-15.3-31.88l-35.26-32.3s-6.8-4.25-1.7-16.58l11.9-29.33s7.23,10.2,13.18,5.1L572,298.55l13.6,12.75s12.75,6.38,19.13,6,13.6,2.55,13.6,2.55,3,17,16.58,15.3C634.87,335.15,660.8,333.88,646.77,315.6Z" transform="translate(0.01 0)" style="opacity: 0.10000000149011612;isolation: isolate"/>
  <path d="M646.77,313.9s3.83,6,13.18.43,31.46-5.53,31.46-5.53l22.1-10.2s-1.7-36.56-6.8-38.26c0,0,10.2,4.25,13.18-4.25l17,45.06s-1.28,9.78-10.63,13.6L691,336.45s-15.3,9.35-15.3,32.73-3,60.36-3,60.36-49.31,29.76-69.29-5.1c0,0,8.08-41.23,2.55-51.44,0,0-1.7-26.78-15.3-31.88l-35.28-32.31s-6.8-4.25-1.7-16.58l11.9-29.33s7.23,10.2,13.18,5.1l-6.8,28.91,13.6,12.75s12.75,6.38,19.13,6,13.6,2.55,13.6,2.55,3,17,16.58,15.3C634.87,333.45,660.8,332.18,646.77,313.9Z" transform="translate(0.01 0)" style="opacity: 0.10000000149011612;isolation: isolate"/>
  <path d="M646.79,314.78l.17.23Z" transform="translate(0.01 0)" style="fill: #d39999"/>
  <path d="M555.38,309.65,590.66,342c13.6,5.1,15.3,31.88,15.3,31.88,5.53,10.2-2.55,51.44-2.55,51.44,20,34.86,69.29,5.1,69.29,5.1s.1-1.22.26-3.37c.14-1.88.33-4.48.54-7.57.28-4,.6-8.83.9-14.07.67-11.45,1.28-24.79,1.28-35.35,0-23.38,15.3-32.73,15.3-32.73L717.45,321l8.82-5.42c9.35-3.83,10.63-13.6,10.63-13.6L719.9,257c-2.78,7.94-11.87,4.75-13,4.3,5,2.26,6.67,38.21,6.67,38.21l-22.1,10.2s-22.1,0-31.46,5.53c-8,4.7-11.91,1.1-12.91-.09,13.44,18-12.17,19.21-12.17,19.21C621.28,336,618.3,319,618.3,319s-7.23-3-13.6-2.55-19.13-6-19.13-6L572,297.71l6.8-28.91c-6,5.1-13.18-5.1-13.18-5.1L553.69,293C548.58,305.4,555.38,309.65,555.38,309.65Z" transform="translate(0.01 0)" style="fill: #b45181"/>
  <path d="M643.37,297.32a40.43,40.43,0,0,0,.41,8,20.81,20.81,0,0,1-24,12.53,15,15,0,0,0-1.51-11.16Z" transform="translate(0.01 0)" style="opacity: 0.10000000149011612;isolation: isolate"/>
  <circle cx="624.47" cy="295.84" r="20.83" style="fill: #f7bbc3"/>
  <path d="M624.79,284c.18,2.11.33,4.36-.64,6.24a11,11,0,0,1-2,2.56l-4.36,4.49a11.59,11.59,0,0,0-3.11,4.43c-1.26,4.2,2.46,8.37,2.34,12.76a5.68,5.68,0,0,1-6.44,2.38,11.05,11.05,0,0,1-2.69-1.49l-4.27-2.91c-3.25-2.22-6.65-4.62-8.28-8.2-1.71-3.77-1.13-8.13-1.21-12.27a63.75,63.75,0,0,1-.11-7.57,22.39,22.39,0,0,1,2-6.94,25.21,25.21,0,0,1,8.9-10.83A17.67,17.67,0,0,1,618.48,264a9.5,9.5,0,0,0,2.3.41c1.51,0,2.81-1,4.2-1.59a8.64,8.64,0,0,1,10.09,2.91c.92,1.3,1.45,2.85,2.41,4.11,1.43,1.88,3.76,3.07,4.73,5.22s.32,4.61.53,6.93a19.23,19.23,0,0,0,1.89,5.95c-2.36-.82-3.51-3.4-5-5.38a13.27,13.27,0,0,0-9.75-4.94c-1.3-.06-3.71-.16-4.74.83C623.83,279.73,624.66,282.45,624.79,284Z" transform="translate(0.01 0)" style="opacity: 0.10000000149011612;isolation: isolate"/>
  <path d="M624.37,283.14c.18,2.11.33,4.36-.64,6.24a11,11,0,0,1-2,2.56l-4.42,4.51a11.49,11.49,0,0,0-3.11,4.4c-1.26,4.2,2.46,8.37,2.34,12.76A5.68,5.68,0,0,1,610.1,316a11.05,11.05,0,0,1-2.69-1.49l-4.21-2.87c-3.25-2.22-6.65-4.62-8.28-8.2-1.71-3.77-1.13-8.13-1.21-12.27a63.75,63.75,0,0,1-.11-7.57,22.39,22.39,0,0,1,2-6.94,25.21,25.21,0,0,1,8.9-10.83,17.67,17.67,0,0,1,13.56-2.63,9.5,9.5,0,0,0,2.3.41c1.51,0,2.81-1,4.2-1.59a8.64,8.64,0,0,1,10.09,2.91c.92,1.3,1.45,2.85,2.41,4.11,1.43,1.88,3.76,3.07,4.73,5.22s.32,4.61.53,6.93a19.23,19.23,0,0,0,1.89,5.95c-2.36-.82-3.51-3.4-5-5.38a13.27,13.27,0,0,0-9.75-4.94c-1.3-.06-3.71-.16-4.74.83C623.4,278.88,624.2,281.59,624.37,283.14Z" transform="translate(0.01 0)" style="fill: #74585e"/>
  <g style="opacity: 0.10000000149011612">
    <path d="M647,315l-.18-.24Z" transform="translate(0.01 0)"/>
    <path d="M575,270.26a5.47,5.47,0,0,0,3.79-1.42l-.41,1.72A6,6,0,0,1,575,270.26Z" transform="translate(0.01 0)"/>
    <path d="M650.33,317.19C661,333.54,637,334.73,637,334.73a13.24,13.24,0,0,1-5.46-.39,14.27,14.27,0,0,0,3.33,0S660.57,333.07,647,315A6.9,6.9,0,0,0,650.33,317.19Z" transform="translate(0.01 0)"/>
    <path d="M606.82,316.88a18,18,0,0,1-5.11-.61,13.72,13.72,0,0,0,3,.19,27.79,27.79,0,0,1,7.87.79A24.71,24.71,0,0,0,606.82,316.88Z" transform="translate(0.01 0)"/>
    <path d="M553.68,293.07l11.9-29.33a21.24,21.24,0,0,0,1.54,1.87l-11.31,27.84c-5.1,12.33,1.7,16.58,1.7,16.58l35.28,32.31c13.6,5.1,15.3,31.88,15.3,31.88,5.53,10.2-2.55,51.44-2.55,51.44,5.36,9.35,12.83,14,20.9,15.92-8.87-1.51-17.19-6.18-23-16.35,0,0,8.08-41.23,2.55-51.44,0,0-1.7-26.78-15.3-31.88l-35.31-32.26S548.58,305.4,553.68,293.07Z" transform="translate(0.01 0)"/>
    <path d="M706.71,261.19a15.6,15.6,0,0,0,2.69.77c4.66,4.09,6.23,37.91,6.23,37.91l-22.1,10.2s-22.1,0-31.46,5.53c-4.58,2.71-7.83,2.66-10,1.91,2,.12,4.57-.41,7.83-2.33,9.35-5.53,31.46-5.53,31.46-5.53l22.1-10.2S711.81,262.89,706.71,261.19Z" transform="translate(0.01 0)"/>
    <path d="M710.42,262.13c3.23.42,7.67-.05,9.47-5.19l1,2.65C718.1,263.55,713,262.82,710.42,262.13Z" transform="translate(0.01 0)"/>
  </g>
  <path d="M674.4,405.36c.67-11.45,1.28-24.79,1.28-35.35,0-23.38,15.3-32.73,15.3-32.73L717.45,321c-15.4,4-35.89,10.89-37.73,19-3,13.18-8.5,14.45-6.38,37A255.34,255.34,0,0,1,674.4,405.36Z" transform="translate(0.01 0)" style="opacity: 0.10000000149011612;isolation: isolate"/>
  <path d="M670.36,437.81s-3.83,11.9,6.8,19.55" transform="translate(0.01 0)" style="opacity: 0.10000000149011612;isolation: isolate"/>
  <path d="M610.85,437.81s-1.28,8.93-6.38,12.33" transform="translate(0.01 0)" style="opacity: 0.10000000149011612;isolation: isolate"/>
  <path d="M665.48,608.91s20.4,9.35,37.83,11.9c8.84,1.29,12.1-1.35,12.61-4.15.58,3.27-2,7.41-12.61,5.85-17.43-2.55-37.83-11.9-37.83-11.9a35.44,35.44,0,0,1-.14-4.25C665.37,607.91,665.48,608.91,665.48,608.91Z" transform="translate(0.01 0)" style="opacity: 0.10000000149011612;isolation: isolate"/>
  <path d="M580.46,617.83C597,616.13,609.37,603,609.37,603s-.63-10.06-3.65-16.49c3.39,6.35,4.08,17.34,4.08,17.34S597.47,617,580.89,618.68c-8.47.87-12.17-1.48-13.08-4C569.2,616.85,573,618.6,580.46,617.83Z" transform="translate(0.01 0)" style="opacity: 0.10000000149011612;isolation: isolate"/>
  <path d="M600.4,182a37.51,37.51,0,1,0,7.8-22.88A37.49,37.49,0,0,0,600.4,182Z" transform="translate(0.01 0)" style="fill: url(#c)"/>
  <path d="M601.78,182a36.13,36.13,0,1,0,7.51-22A36.13,36.13,0,0,0,601.78,182Z" transform="translate(0.01 0)" style="fill: #e0e0e0"/>
  <line x1="617.67" y1="164.21" x2="617.67" y2="178.23" style="fill: none;stroke: #535461;stroke-miterlimit: 10"/>
  <line x1="644.45" y1="176.98" x2="629.82" y2="186.64" style="fill: none;stroke: #535461;stroke-miterlimit: 10"/>
  <line x1="629.82" y1="155.5" x2="646.95" y2="162.66" style="fill: none;stroke: #535461;stroke-miterlimit: 10"/>
  <line x1="658.47" y1="179.47" x2="657.53" y2="201.27" style="fill: none;stroke: #535461;stroke-miterlimit: 10"/>
  <line x1="646.95" y1="207.81" x2="627.64" y2="198.16" style="fill: none;stroke: #535461;stroke-miterlimit: 10"/>
  <line x1="617.67" y1="199.72" x2="617.67" y2="211.89" style="fill: none;stroke: #535461;stroke-miterlimit: 10"/>
  <line x1="610.51" y1="190.37" x2="602.09" y2="186.64" style="fill: none;stroke: #535461;stroke-miterlimit: 10"/>
  <line x1="657.53" y1="161.41" x2="656.89" y2="151.22" style="fill: none;stroke: #535461;stroke-miterlimit: 10"/>
  <line x1="663.14" y1="173.25" x2="673.58" y2="176.23" style="fill: none;stroke: #535461;stroke-miterlimit: 10"/>
  <polygon points="665.93 173.25 657.85 159.24 644.46 161.41 644.46 176.99 658.77 184.47 665.93 173.25" style="fill: #688ea7"/>
  <path d="M609.29,159.92l8.38,4.29c2.8-3.74,14.32-8.1,14.32-8.1l-1.2-9.57A36.08,36.08,0,0,0,609.29,159.92Z" transform="translate(0.01 0)" style="fill: #688ea7"/>
  <polygon points="632 185.09 617.36 178.24 609.25 189.75 617.66 203.15 632 200.97 632 185.09" style="fill: #688ea7"/>
  <path d="M644.44,205.94v11.51a36.12,36.12,0,0,0,23.29-15.15l-10.21-4.19Z" transform="translate(0.01 0)" style="fill: #688ea7"/>
  <path d="M108.5,447.56A31.46,31.46,0,1,0,115,428.37,31.47,31.47,0,0,0,108.5,447.56Z" transform="translate(0.01 0)" style="fill: url(#d)"/>
  <path d="M109.66,447.56A30.3,30.3,0,1,0,116,429.07,30.29,30.29,0,0,0,109.66,447.56Z" transform="translate(0.01 0)" style="fill: #e0e0e0"/>
  <line x1="122.99" y1="432.67" x2="122.99" y2="444.43" style="fill: none;stroke: #535461;stroke-miterlimit: 10"/>
  <line x1="145.45" y1="443.38" x2="133.17" y2="451.48" style="fill: none;stroke: #535461;stroke-miterlimit: 10"/>
  <line x1="133.17" y1="425.36" x2="147.54" y2="431.37" style="fill: none;stroke: #535461;stroke-miterlimit: 10"/>
  <line x1="157.2" y1="445.47" x2="156.42" y2="463.76" style="fill: none;stroke: #535461;stroke-miterlimit: 10"/>
  <line x1="147.54" y1="469.24" x2="131.34" y2="461.14" style="fill: none;stroke: #535461;stroke-miterlimit: 10"/>
  <line x1="122.99" y1="462.45" x2="122.99" y2="472.66" style="fill: none;stroke: #535461;stroke-miterlimit: 10"/>
  <line x1="116.98" y1="454.61" x2="109.92" y2="451.48" style="fill: none;stroke: #535461;stroke-miterlimit: 10"/>
  <line x1="156.42" y1="430.32" x2="155.88" y2="421.78" style="fill: none;stroke: #535461;stroke-miterlimit: 10"/>
  <line x1="161.12" y1="440.25" x2="169.88" y2="442.75" style="fill: none;stroke: #535461;stroke-miterlimit: 10"/>
  <polygon points="163.47 440.25 156.68 428.5 145.44 430.32 145.44 443.38 157.46 449.65 163.47 440.25" style="fill: #688ea7"/>
  <path d="M116,429.07l7,3.6c2.35-3.13,12-6.79,12-6.79l-1-8A30.25,30.25,0,0,0,116,429.07Z" transform="translate(0.01 0)" style="fill: #688ea7"/>
  <polygon points="135 450.18 122.72 444.44 115.92 454.1 122.98 465.32 135 463.5 135 450.18" style="fill: #688ea7"/>
  <path d="M145.44,467.67v9.69A30.28,30.28,0,0,0,165,464.65l-8.56-3.51Z" transform="translate(0.01 0)" style="fill: #688ea7"/>
  <path d="M85.4,485.37a31.46,31.46,0,1,0,6.53-19.19A31.47,31.47,0,0,0,85.4,485.37Z" transform="translate(0.01 0)" style="fill: url(#e)"/>
  <path d="M86.56,485.37a30.3,30.3,0,1,0,6.29-18.49A30.29,30.29,0,0,0,86.56,485.37Z" transform="translate(0.01 0)" style="fill: #e0e0e0"/>
  <line x1="99.89" y1="470.48" x2="99.89" y2="482.23" style="fill: none;stroke: #535461;stroke-miterlimit: 10"/>
  <line x1="122.35" y1="481.19" x2="110.08" y2="489.29" style="fill: none;stroke: #535461;stroke-miterlimit: 10"/>
  <line x1="110.08" y1="463.17" x2="124.44" y2="469.18" style="fill: none;stroke: #535461;stroke-miterlimit: 10"/>
  <line x1="134.1" y1="483.28" x2="133.32" y2="501.56" style="fill: none;stroke: #535461;stroke-miterlimit: 10"/>
  <line x1="124.44" y1="507.05" x2="108.25" y2="498.95" style="fill: none;stroke: #535461;stroke-miterlimit: 10"/>
  <line x1="99.89" y1="500.26" x2="99.89" y2="510.47" style="fill: none;stroke: #535461;stroke-miterlimit: 10"/>
  <line x1="93.88" y1="492.42" x2="86.82" y2="489.29" style="fill: none;stroke: #535461;stroke-miterlimit: 10"/>
  <line x1="133.32" y1="468.13" x2="132.78" y2="459.59" style="fill: none;stroke: #535461;stroke-miterlimit: 10"/>
  <line x1="138.02" y1="478.06" x2="146.78" y2="480.56" style="fill: none;stroke: #535461;stroke-miterlimit: 10"/>
  <polygon points="140.37 478.06 133.57 466.31 122.34 468.13 122.34 481.19 134.37 487.46 140.37 478.06" style="fill: #688ea7"/>
  <path d="M92.85,466.88l7,3.6c2.35-3.13,12-6.79,12-6.79l-1-8A30.25,30.25,0,0,0,92.85,466.88Z" transform="translate(0.01 0)" style="fill: #688ea7"/>
  <polygon points="111.89 487.99 99.63 482.24 92.83 491.9 99.89 503.13 111.89 501.31 111.89 487.99" style="fill: #688ea7"/>
  <path d="M122.34,505.45v9.69a30.32,30.32,0,0,0,19.53-12.69l-8.56-3.51Z" transform="translate(0.01 0)" style="fill: #688ea7"/>
</svg>
