<svg xmlns="http://www.w3.org/2000/svg" viewBox="0 0 1100.11 731.98">
  <title>running</title>
  <path d="M641.24,146c-64.72-2.3-126.36-23.19-185.18-46S338.9,51.8,275.73,39.69C235.1,31.9,188.63,30.8,155.9,52.58c-31.51,21-41.69,57.15-47.16,90.73-4.12,25.26-6.54,51.84,4.74,75.49,7.84,16.42,21.74,30.22,31.36,45.95,33.47,54.72,9.81,122.2-26.45,175.63-17,25.07-36.75,49-49.88,75.66s-19.2,57.25-7.71,84.47c11.38,27,38.51,47.24,67.9,61.49,59.69,28.94,130,37.23,198.61,41.92,151.83,10.39,304.46,5.89,456.69,1.39,56.34-1.67,112.92-3.36,168.34-12.07,30.78-4.84,62.55-12.52,84.9-31,28.36-23.53,35.39-63.38,16.38-92.88-31.88-49.49-120-61.78-142.31-114.9-12.26-29.23.33-61.8,18.16-88.91,38.24-58.16,102.33-109.19,105.7-175.68,2.32-45.66-28.49-91.39-76.13-113C909.11,54.17,839.86,57,803,94.51,765.06,133.07,698.39,147.92,641.24,146Z" transform="translate(-0.01 0)" style="fill: #688ea7;opacity: 0.5;isolation: isolate"/>
  <ellipse cx="171.25" cy="717.9" rx="73.21" ry="14.08" style="fill: #688ea7"/>
  <ellipse cx="170.02" cy="711.92" rx="8.52" ry="11.16" style="fill: #3f3d56"/>
  <ellipse cx="170.02" cy="698.28" rx="8.52" ry="11.16" style="fill: #3f3d56"/>
  <ellipse cx="170.02" cy="684.64" rx="8.52" ry="11.16" style="fill: #3f3d56"/>
  <ellipse cx="170.02" cy="671.01" rx="8.52" ry="11.16" style="fill: #3f3d56"/>
  <ellipse cx="170.02" cy="657.37" rx="8.52" ry="11.16" style="fill: #3f3d56"/>
  <ellipse cx="170.02" cy="643.73" rx="8.52" ry="11.16" style="fill: #3f3d56"/>
  <ellipse cx="170.02" cy="630.09" rx="8.52" ry="11.16" style="fill: #3f3d56"/>
  <path d="M201.94,536.76a40,40,0,0,0,3.18-4.67l-22.4-3.68,24.22.18a40.88,40.88,0,0,0,.78-32.35L175.23,513.1l30-22a40.83,40.83,0,0,0-70.64,41,39.65,39.65,0,0,0,3.2,4.73,41.34,41.34,0,0,0-4.66,7.45l29.08,15.1-31-10.4a40.8,40.8,0,0,0,6.58,38.34,40.83,40.83,0,1,0,64.18,0,40.84,40.84,0,0,0,0-50.49Z" transform="translate(-0.01 0)" style="fill: #688ea7"/>
  <path d="M129.06,562a40.68,40.68,0,0,0,8.74,25.24,40.83,40.83,0,1,0,64.18,0C207.42,580.3,129.06,557.42,129.06,562Z" transform="translate(-0.01 0)" style="opacity: 0.10000000149011612;isolation: isolate"/>
  <path d="M526,548c.62,8,3.7,16.28,10.18,21s16.79,4.63,21.74-1.71a24.48,24.48,0,0,0,3.61-7.85c4.17-13.18,7.13-27.6,2.56-40.65-10.31-.67-22.26-5.52-30,3C527.79,528.72,525.23,538.74,526,548Z" transform="translate(-0.01 0)" style="fill: #3f3d56"/>
  <path d="M573.81,467.36c-1.37,11.63-3.7,23.21-3.46,34.92.09,4.52.57,9,.58,13.54a66.73,66.73,0,0,1-9,33.57,11.22,11.22,0,0,1-2.46,3.18c-2.37,1.92-5.94,1.76-8.6.29a17,17,0,0,1-6.11-6.63c-7.45-12.76-7.66-28.27-10.61-42.74-2.26-11.07-6.22-21.8-7.65-33-.93-7.21-.79-14.56-2.27-21.68-.45-2.15-1.71-5.38-2.54-8.55-.76-2.83-1.18-5.61-.4-7.52,1.59-3.91,6.8-2.39,10.19-2.15a235.86,235.86,0,0,0,35.86-.09c1.18-.09,2.52-.14,3.35.7a4.21,4.21,0,0,1,.8,1.45,48.27,48.27,0,0,1,2.17,8C575.31,449.36,574.85,458.49,573.81,467.36Z" transform="translate(-0.01 0)" style="fill: #fabdbd"/>
  <g style="opacity: 0.10000000149011612">
    <path d="M569.21,430.5a9.53,9.53,0,0,0-1.85,0c-5.72.46-11.45.69-17.17.72Q559.7,431.24,569.21,430.5Z" transform="translate(-0.01 0)"/>
    <path d="M552.89,552.86a17,17,0,0,1-6.11-6.63c-7.45-12.76-7.66-28.27-10.61-42.74-2.26-11.07-6.22-21.8-7.65-33-.93-7.21-.79-14.56-2.27-21.68-.45-2.15-1.71-5.38-2.54-8.55-.76-2.83-1.18-5.61-.4-7.52a4.27,4.27,0,0,1,4-2.6c-2.53-.17-5,.13-6,2.6-.78,1.91-.36,4.69.4,7.52.83,3.17,2.09,6.4,2.54,8.55,1.48,7.12,1.34,14.47,2.27,21.68,1.43,11.21,5.39,21.94,7.65,33,3,14.47,3.16,30,10.61,42.74a17,17,0,0,0,6.11,6.63,8.94,8.94,0,0,0,5.24,1.06A9.22,9.22,0,0,1,552.89,552.86Z" transform="translate(-0.01 0)"/>
  </g>
  <path d="M611.62,528.69c-6,12-5,29-5,29,1,40-15,124-15,124h-14s-2-93,0-101-1-36-4-75c-2.23-29,3.84-55.28,7.1-66.81,1.12-4,1.9-6.19,1.9-6.19s23-34,36-18c3,3.72,4.59,11.23,5.14,20.71C625.54,466.68,616.22,519.48,611.62,528.69Z" transform="translate(-0.01 0)" style="fill: #fabdbd"/>
  <path d="M623.76,435.4c-.55-9.48-2.12-17-5.14-20.71s-6.3-4.64-9.82-4.17a10.66,10.66,0,0,1,6.82,4.17c3,3.72,4.59,11.23,5.14,20.71,1.78,31.28-7.54,84.08-12.14,93.29-6,12-5,29-5,29,1,40-15,124-15,124h3s16-84,15-124c0,0-1-17,5-29C616.22,519.48,625.54,466.68,623.76,435.4Z" transform="translate(-0.01 0)" style="opacity: 0.10000000149011612;isolation: isolate"/>
  <path d="M570.34,678a13.06,13.06,0,0,0-2.86,3.12c-1.79,3.38.75,7.42,3.47,10.11s6,5.57,6,9.4c0,3.08-2.33,5.72-4.94,7.36-1.4.88-3.16,2-2.87,3.66a3.35,3.35,0,0,0,.53,1.17c2.24,3.43,6.21,5.44,10.23,6.2s8.17.43,12.26.1a2.51,2.51,0,0,0,1.68-.58,2.28,2.28,0,0,0,.45-1.38c.2-2.12.07-4.36,1-6.27,1.3-2.61,4.29-3.94,6-6.28,2.4-3.2,2.07-7.65,1.16-11.54-2-8.47-6.45-18.13-13.13-24C581.58,662.37,575.51,673.17,570.34,678Z" transform="translate(-0.01 0)" style="fill: #3f3d56"/>
  <path d="M600.64,174c5.58-8.34,4.13-20-1.57-28.3s-14.86-13.52-24.31-16.89c-12.74-4.54-26.79-6.09-39.88-2.68-10.42,2.71-19.78,8.38-29.6,12.76a127.3,127.3,0,0,1-55.28,11c-21.11-.59-44.24-6-61.95,5.54-32.42,21.09-18,78.49-48.67,102-8.27,6.34-18.68,9.11-27.88,14s-17.92,13.4-17.7,23.82c.1,5,2.3,9.77,5,14,11.5,18.23,33,29.51,54.53,29.3s42.54-11.66,54.95-29.28c3.11-4.41,5.85-9.32,10.36-12.26,9-5.9,20.86-1.77,31.6-.89,23.91,1.95,47.83-16,52.59-39.55,2-10.05,1.65-22.06,9.74-28.37,6.53-5.09,15.72-4,24-4.87,15.14-1.57,27.09-11,35.31-23.32,3.77-5.65,4.21-12.4,9.35-16.85C586.77,178.26,595.34,181.87,600.64,174Z" transform="translate(-0.01 0)" style="fill: #3f3d56"/>
  <g style="opacity: 0.10000000149011612">
    <path d="M430,151.81a126.83,126.83,0,0,0,26.17-2c-2.38.07-4.78.07-7.17,0-16.57-.46-34.38-3.88-49.84.24C409.36,150.15,419.91,151.53,430,151.81Z" transform="translate(-0.01 0)"/>
    <path d="M398.62,299c-4.51,2.94-7.25,7.85-10.36,12.26a70.23,70.23,0,0,1-39.47,27.21c1.17.05,2.34.08,3.52.07,21.55-.21,42.54-11.66,54.95-29.28,3.11-4.41,5.85-9.32,10.36-12.26l.78-.48C411.34,295.54,404.41,295.2,398.62,299Z" transform="translate(-0.01 0)"/>
    <path d="M598.06,145.66c-5.69-8.26-14.86-13.52-24.31-16.89-12.74-4.54-26.79-6.09-39.88-2.68-.3.07-.59.16-.88.24a76.41,76.41,0,0,1,21.76,4.44c9.45,3.37,18.62,8.63,24.31,16.89s7.15,20,1.57,28.3c-5.3,7.91-13.87,4.3-19.48,9.17-5.14,4.45-5.58,11.2-9.35,16.85-7.07,10.57-16.91,19-29.16,22.2,4.21-.5,8.65-.44,12.85-.88,15.14-1.57,27.09-11,35.31-23.32,3.77-5.65,4.21-12.4,9.35-16.85,5.61-4.87,14.18-1.26,19.48-9.17C605.22,165.62,603.77,153.92,598.06,145.66Z" transform="translate(-0.01 0)"/>
    <path d="M516.5,225.3c-8.23.86-17.42-.22-24,4.87-8.09,6.31-7.7,18.32-9.74,28.37C479.25,276.11,465,290.6,448.06,296l1.19.11c23.91,1.95,47.83-16,52.59-39.55,2-10.05,1.65-22.06,9.74-28.37a18.07,18.07,0,0,1,6.21-3C517.34,225.19,516.93,225.26,516.5,225.3Z" transform="translate(-0.01 0)"/>
  </g>
  <path d="M758.12,138.19s-24,48-32,66-81,45-91,46a12.9,12.9,0,0,0-7.14,3.44c-5.65,5-8.86,13.56-8.86,13.56s4,27-1,72c-.1.87-.19,1.74-.27,2.58-4.36,42.82,4.77,52.92,4.77,52.92s-97,37-94-11c.94-15.11.8-26.15-.13-35.38a148.69,148.69,0,0,0-5.74-27.86c-2.37-8.29-5.2-17.38-8.13-29.76a130.66,130.66,0,0,0-5.56-18.15c-.07-.18-.14-.36-.2-.53-5-12.41-10-16.42-12.86-17.72a43,43,0,0,1-7.68-4.32c-9.24-6.67-29.07-21.62-46.73-39.28-24-24-48-81-48-81s-7-33,9-60,9,53,9,53,29,39,36,57c3.6,9.26,9.32,14,14,16.46A165.67,165.67,0,0,1,483.73,210a128.1,128.1,0,0,0,14.89,9.72c11.18,6,24.57,12.77,35.73,14.55a33.17,33.17,0,0,0,5.27.45,5.49,5.49,0,0,0,4.4-2c3-3.53,2.93-11.13,2.24-17.38a89.64,89.64,0,0,0-1.64-9.63s32.5-20.5,31.5,4.5a27.76,27.76,0,0,0,.76,8.22,14.26,14.26,0,0,0,9.69,10.6,24,24,0,0,0,12,.39,11.69,11.69,0,0,0,3.54-1.21c3-2,33-11,42-12s54-23,54-23l49-68s-1-40,19-56S758.12,138.19,758.12,138.19Z" transform="translate(-0.01 0)" style="fill: #fabdbd"/>
  <g style="opacity: 0.10000000149011612">
    <path d="M617.85,335.77A199.67,199.67,0,0,0,616.7,360c.1-5.28.45-11.31,1.15-18.2.08-.84.17-1.71.27-2.58a392.89,392.89,0,0,0,2.5-46.39,400.76,400.76,0,0,1-2.5,40.39C618.06,334.06,617.93,334.93,617.85,335.77Z" transform="translate(-0.01 0)"/>
    <path d="M545.66,205.06c-.67.39-1,.63-1,.63a86.36,86.36,0,0,1,1.92,13A61.63,61.63,0,0,0,545.66,205.06Z" transform="translate(-0.01 0)"/>
    <path d="M412.06,117.26c.49-7,1.22-19.55,1.08-30.71-.17,14.92-1.5,30.14-1.5,30.14Z" transform="translate(-0.01 0)"/>
    <path d="M528.69,382.52a6.57,6.57,0,0,1-.07,1.17c-3,48,94,11,94,11a16.34,16.34,0,0,1-2.53-5.08C605.48,394.81,532.06,419,528.69,382.52Z" transform="translate(-0.01 0)"/>
    <path d="M758.12,132.19s-24,48-32,66-81,45-91,46a12.9,12.9,0,0,0-7.14,3.44c-5.65,5-8.86,13.56-8.86,13.56s.24,1.63.53,4.73c1.12-2.57,4-8.47,8.33-12.29a12.9,12.9,0,0,1,7.14-3.44c10-1,83-28,91-46s32-66,32-66,16.91-51.35,15-66.71C771.63,91.16,758.12,132.19,758.12,132.19Z" transform="translate(-0.01 0)"/>
    <path d="M528.49,342.31a148.69,148.69,0,0,0-5.74-27.86c-2.37-8.29-5.2-17.38-8.13-29.76a130.66,130.66,0,0,0-5.56-18.15c-.07-.18-.14-.36-.2-.53-5-12.41-10-16.42-12.86-17.72a43,43,0,0,1-7.68-4.32c-9.24-6.67-29.07-21.62-46.73-39.28-24-24-48-81-48-81a90.31,90.31,0,0,1-1.48-14.58,96.59,96.59,0,0,0,1.48,20.58s24,57,48,81c17.66,17.66,37.49,32.61,46.73,39.28a43.46,43.46,0,0,0,7.74,4.32c2.85,1.3,7.84,5.31,12.86,17.72.06.17.13.35.2.53a130.54,130.54,0,0,1,5.53,18.15c2.93,12.38,5.76,21.47,8.13,29.76a148.69,148.69,0,0,1,5.74,27.86c.42,4.18.67,8.73.74,13.85A175.39,175.39,0,0,0,528.49,342.31Z" transform="translate(-0.01 0)"/>
  </g>
  <path d="M627.53,298.87a59.48,59.48,0,0,0-4,7.88C622,311,622,315.52,621.73,320a106.43,106.43,0,0,1-2.84,18.52,20.7,20.7,0,0,1-1,3.28,8,8,0,0,1-3,3.69,21.82,21.82,0,0,1-3.39,1.85c-13.92,6.5-29.1,12.24-44.29,10a64.24,64.24,0,0,1-18.43-6.2c-5.5-2.67-11.72-5.84-17.42-3.62h0a8.8,8.8,0,0,1-2.79.87,2.59,2.59,0,0,1-.56-.05c-1.88-.36-1.88-6.7-2.31-8.57-1.64-7.18-1.89-13-2.87-19.24a63.45,63.45,0,0,0-2.41-10.17c-4-12.1-5.21-25-5.21-37.68,0-.63-4.5,0-6-.06-.38,0-.59-.06-.5-.19a2.43,2.43,0,0,1,.3-.34,4.44,4.44,0,0,1,1.79-.89l1.18-.35c6.18-1.75,13-2.48,17.62-6.83,4.8-4.49,6-11.66,5.79-18.22-.06-2.11-1.09-7.23-.92-11.48a33.17,33.17,0,0,0,5.27.45,5.49,5.49,0,0,0,4.4-2,79,79,0,0,1,4.32,10c1.7,4.18,3,8.58,5.49,12.36,4,6.16,11.38,10.21,18.72,9.59s14.17-6.26,15.48-13.5c1.15-6.35-1.52-15.49-1.46-22.09a24,24,0,0,0,12,.39,10.84,10.84,0,0,1,.43,1.25c2.25,7.72,5.25,16.58,12.8,19.32,4.88,1.76,10.65.44,15.16,3a9.6,9.6,0,0,1,1,.66,11.07,11.07,0,0,1,2.65,2.81,22.65,22.65,0,0,1,3.21,10.08A56,56,0,0,1,627.53,298.87Z" transform="translate(-0.01 0)" style="fill: #688ea7"/>
  <path d="M576.88,218.41a34.08,34.08,0,0,1-30.62-3.09,89.64,89.64,0,0,0-1.64-9.63s32.5-20.5,31.5,4.5A27.76,27.76,0,0,0,576.88,218.41Z" transform="translate(-0.01 0)" style="opacity: 0.10000000149011612;isolation: isolate"/>
  <circle cx="564.6" cy="184.69" r="34" style="fill: #fabdbd"/>
  <path d="M505.12,269.19s66-42,271,3,324,9,324,9v47s-230,25-318,0S568.85,288.77,525,327.48Z" transform="translate(-0.01 0)" style="fill: #f86d70"/>
  <path d="M505.12,269.19s66-42,271,3,324,9,324,9v47s-230,25-318,0S568.85,288.77,525,327.48Z" transform="translate(-0.01 0)" style="opacity: 0.10000000149011612;isolation: isolate"/>
  <path d="M507.12,271.19s64-42,269,3,322,9,322,9l1,43s-228,25-316,0S570.85,283.77,527,322.48Z" transform="translate(-0.01 0)" style="fill: #f86d70"/>
  <path d="M483.06,335.79s-66,42-271-3-195-9-195-9v-47s101-25,189,0,213.27,39.42,257.14.71Z" transform="translate(-0.01 0)" style="fill: #f86d70"/>
  <path d="M483.06,335.79s-66,42-271-3-195-9-195-9v-47s101-25,189,0,213.27,39.42,257.14.71Z" transform="translate(-0.01 0)" style="opacity: 0.10000000149011612;isolation: isolate"/>
  <path d="M481.06,333.79s-64,42-269-3-193-9-193-9l-1-43s99-25,187,0,212.27,42.42,256.14,3.71Z" transform="translate(-0.01 0)" style="fill: #f86d70"/>
  <path d="M535.37,190.32c-1-6.24-2.54-14.1,2.68-17.67a11,11,0,0,1,6.19-1.6c10.81-.11,21.14,7.42,31.74,5.22a17.89,17.89,0,0,0,7-31.87c-4.17-3.1-9.44-4.22-14.54-5.27-13.41-2.76-27.41-5.51-40.65-2s-25.34,15.38-24.28,29c.5,6.52,3.82,12.44,7.29,18,2.64,4.22,12.92,24,17.91,24.3C535.75,208.84,536.06,194.4,535.37,190.32Z" transform="translate(-0.01 0)" style="fill: #3f3d56"/>
  <path d="M619.62,377.69s-69,17-92,0c0,0-10,39-7,59,0,0,49,3,54,6,0,0,1-8,6-4,0,0,17-20,48-2C628.62,436.69,634.62,389.69,619.62,377.69Z" transform="translate(-0.01 0)" style="fill: #688ea7"/>
  <path d="M583,144.4a19.84,19.84,0,0,0-2.23-1.4A17.85,17.85,0,0,1,571,172.27c-10.6,2.2-20.93-5.33-31.74-5.22a11,11,0,0,0-6.19,1.6c-5.22,3.57-3.69,11.43-2.69,17.67.66,4.08.39,18.52-6.63,18.13h-.12c1.93,2.35,3.73,3.94,5.12,4,7,.39,7.29-14,6.63-18.13-1-6.24-2.53-14.1,2.69-17.67a11,11,0,0,1,6.19-1.6c10.81-.11,21.14,7.42,31.74,5.22a17.89,17.89,0,0,0,7-31.87Z" transform="translate(-0.01 0)" style="opacity: 0.10000000149011612;isolation: isolate"/>
  <g style="opacity: 0.10000000149011612">
    <path d="M86.36,96.9S11.59,65.46,1.79,122.16c0,0-5.11,8.83,2,16.13,0,0,1.53-3.91,8.76.14a37.55,37.55,0,0,0,8.16,3.31,18.36,18.36,0,0,0,11.62-.62h0s24.59-1.33,45.27-33.5c0,0,8.86-5.48,9.31-7.53l-14.82,1s1.13,10.85-5,17.36c0,0,5.45-16.83,2.83-17.31-.53-.1-7.83.87-7.83.87s1.89,18.86-8,28.62c0,0,9.18-19.19,5.18-28.28l-10.93,2.11s3,19.84-7.82,31.39c0,0,8.89-20.4,5.46-30.77L35.5,108.6S38,128,29,137.6c0,0,7.9-24.61,4.18-28,0,0-9.42,3.82-11.44,6,0,0,1.5,14-4.26,19,0,0,3.54-17,1.79-17.7,0,0-10.95,8.24-14.28,15.35,0,0,4.16-10.86,12.9-17,0,0-7.34-1.24-13,1.83,0,0,3.79-7.21,15.65-3.79,0,0,8.79-6.08,10.55-6,0,0-11.22-5-19.33-4.39,0,0,8.69-5,22.08,3.36l10.44-3.78s-14.49-7.43-21.76-7.4c0,0,9.66-3.73,24.48,6.67l10.69-2.19s-12-7.35-20.09-9.06c0,0,9.71-1.53,23.18,8.56l7.32-.62S59.22,93.23,56.54,92,54,89.86,54,89.86a35,35,0,0,1,17.17,8.26S86.29,97.83,86.36,96.9Z" transform="translate(-0.01 0)" style="fill: #688ea7"/>
  </g>
  <g style="opacity: 0.10000000149011612">
    <path d="M83.6,40.54S57.06-20.73,19,7.37c0,0-8.07,2.34-8,10.7,0,0,3.14-1.45,5.12,5.07a31.35,31.35,0,0,0,3,6.62A15,15,0,0,0,26.28,36h0s15.36,13.22,46,5.89c0,0,8.39,1.8,9.83.83l-9.37-7.86s-5.5,7.09-12.88,7.44c0,0,12.83-6.9,11.54-8.68-.26-.36-5.14-3.94-5.14-3.94S56.63,42,45.26,42.14c0,0,16.39-6.18,19.19-13.85l-7.69-5S47.22,36.78,34.23,37.48c0,0,16.9-7,20.77-15.16l-8.23-3.88s-9.56,13-20.37,13.49c0,0,18.71-10.12,18.42-14.25,0,0-7.77-3.1-10.23-2.92,0,0-7.07,9.15-13.38,8.89,0,0,11.79-8.09,11.14-9.5,0,0-11.2-1.34-17.23,1,0,0,8.66-4.08,17.35-2.74,0,0-3.65-4.93-8.74-6.3,0,0,6.36-2.13,11.46,6.66,0,0,8.68,1.39,9.69,2.43,0,0-3.8-9.39-9-13.62,0,0,8,2,11.2,14.57l8.35,3.71S51.06,7.19,46.67,3.08c0,0,7.87,3.28,10.75,17.9L65,25.77s-3-11.2-6.77-16.78c0,0,6.64,4.61,8.9,18.28l4.7,3.8s-2.3-8.14-3.17-10.42-.32-2.7-.32-2.7a28.85,28.85,0,0,1,5.49,14.69S83.06,41.06,83.6,40.54Z" transform="translate(-0.01 0)" style="fill: #688ea7"/>
  </g>
</svg>
