<svg xmlns="http://www.w3.org/2000/svg" xmlns:xlink="http://www.w3.org/1999/xlink" viewBox="0 0 1104.52 798.89">
  <defs>
    <linearGradient id="a" x1="778.89" y1="201.18" x2="778.89" y2="510.98" gradientTransform="matrix(1, 0, 0, -1, -47.74, 747.45)" gradientUnits="userSpaceOnUse">
      <stop offset="0" stop-color="gray" stop-opacity="0.25"/>
      <stop offset="0.54" stop-color="gray" stop-opacity="0.12"/>
      <stop offset="1" stop-color="gray" stop-opacity="0.1"/>
    </linearGradient>
    <linearGradient id="b" x1="514.31" y1="325.7" x2="514.31" y2="343.52" xlink:href="#a"/>
  </defs>
  <title>tennis</title>
  <path d="M1104.12,69.19c-3.72,31.61-29.81,56.64-36,87.86a84.88,84.88,0,0,0-1.46,12.41c-.89,17.93,2.66,36.23.83,54.19-3.41,33.68-23.88,60-49.87,82.81-19.66,17.21-42.48,32.35-63.47,47-53.44,37.33-103.56,84.46-125.51,145.84-14.63,40.93-15.75,85.41-26.49,127.53s-35.2,85.22-76.54,98.65c-44.37,14.42-93.26-9.62-138.92-.12-49,10.2-83.75,56.51-132.1,69.59-61.43,16.62-122.65-24.22-185.71-32.73-30.28-4.09-61.1-.62-91.54-3.24a230,230,0,0,1-96-30.51c-10-5.87-20.11-13.08-24.76-23.74-4-9.21-3.39-19.71-2.16-29.68,4.6-37,16.24-77.22-2.07-109.74C35.46,535.31-5.47,513.85.6,480c3.66-20.38,23.66-33.11,42.28-42.24,38.32-18.83,79.14-33.57,113.39-59,24.5-18.22,45.6-43.64,54.6-72.23a96.21,96.21,0,0,0,4.45-35.42c-1.26-18.9-7.8-40.12,3.6-55.25,4.94-6.56,12.51-10.59,20.12-13.67,28.7-11.6,60.58-12.27,90.42-20.51a124.61,124.61,0,0,0,29.25-12.21c18.2-10.54,32.85-26.07,36.39-46.34,2.07-11.88.23-24.85,6.16-35.35C411.26,70,431,62.52,453.11,60.1c27.33-3,58.28,1.69,79,4l2.07.22c26.61,2.77,53-3.12,78.93-12,28-9.51,55.37-22.45,82-31.65q3.75-1.3,7.48-2.49A383,383,0,0,1,762.11,4.33a389.13,389.13,0,0,1,86-3.32,381.25,381.25,0,0,1,43.38,5.64q6.32,1.2,12.62,2.57c24.42,5.23,48.71,11.62,73.62,12h5.38c29.71-.51,60.09-8.06,88.28,1.06,12.87,4.17,25.11,12.37,30.27,24.81C1104.53,54,1105,61.75,1104.12,69.19Z" transform="translate(0.01 0)" style="fill: #688ea7;opacity: 0.5"/>
  <path d="M1066.7,169.45H1041a34,34,0,0,0-22.34-30,24,24,0,1,0-23.15,0,34,34,0,0,0-22.34,30H973a34,34,0,0,0-22.28-29A24,24,0,1,0,915.53,115a33.86,33.86,0,0,0-9.83-5.59,24,24,0,1,0-23.15,0,34,34,0,0,0-22.42,32v28h-11v-22a34,34,0,0,0-22.42-32,24,24,0,1,0-23.15,0A34.1,34.1,0,0,0,784,133.89a34.06,34.06,0,0,0-16.27-12.44,24,24,0,1,0-23.15,0,34.1,34.1,0,0,0-17.42,14.23v-4.23a34,34,0,0,0-22.42-32,24,24,0,1,0-23.15,0,34,34,0,0,0-22.42,32v38h-12a34.08,34.08,0,0,0-19.39-18,24,24,0,1,0-23.15,0,34,34,0,0,0-6.76,3.35,34,34,0,0,0-22.14-27.35,24,24,0,1,0-23.15,0,34.06,34.06,0,0,0-21,22.4,34,34,0,0,0-13.82-9.4,24,24,0,1,0-23.15,0,33.9,33.9,0,0,0-10.08,5.8,34.11,34.11,0,0,0-19.8-18.8,24,24,0,1,0-23.15,0,34,34,0,0,0-22.42,32v10h-60.4a124.43,124.43,0,0,1-29.25,12.15c-29.84,8.24-61.72,8.91-90.42,20.51-7.61,3.08-15.18,7.11-20.12,13.67-11.4,15.13-4.86,36.35-3.6,55.25a96.42,96.42,0,0,1-4.46,35.42h806.79c26-22.76,46.46-49.13,49.87-82.81C1069.36,205.69,1065.81,187.39,1066.7,169.45Z" transform="translate(0.01 0)" style="opacity: 0.1;isolation: isolate"/>
  <path d="M772.26,518.52s.35,12.65-10.9,15.11,4.57,9.84,10.9,8.08,32.34-24.6,32.34-24.6-9.14-14.06-15.11-14.06C789.45,503.06,778.56,521.33,772.26,518.52Z" transform="translate(0.01 0)" style="opacity: 0.05000000074505806;isolation: isolate"/>
  <path d="M721.26,511.14s.7,11.6-16.52,18.28c0,0-17.93,1.76-5.62,10.54s49.56-2.46,49.56-2.46-.7-11.25-4.92-20.39C743.76,517.12,723.38,515.71,721.26,511.14Z" transform="translate(0.01 0)" style="opacity: 0.05000000074505806;isolation: isolate"/>
  <path d="M855.65,268.33c-5.43-6.41-17,17.46-17,17.46l-42.13,9.66a14.09,14.09,0,0,1-6.86-4.66,19.45,19.45,0,0,0,17.57-9.7l-10.86-.61a8.86,8.86,0,0,1-3.22-.58c-2.08-.95-3-3.26-4.12-5.25A25.42,25.42,0,0,0,775.26,263c-3.89-1.38-8.23-1.86-11.57-4.26-2.41-1.73-4.05-4.28-6-6.51-9.25-10.68-24.57-13.64-38.71-15.48-2.5-.33-5.35-.54-7.23,1.12-1.29,1.13-1.8,2.9-2.92,4.2-1.91,2.23-5.14,2.68-8.05,3.23a26.45,26.45,0,0,0-10.28,3.91,13,13,0,0,0-5.73,9c-.56,5.55,3.49,10.86,2.74,16.39-.23,1.7-.91,3.32-1,5a15.69,15.69,0,0,0,.76,4.76c1.22,4.69,2.16,9.57,1.33,14.34s-3.75,9.42-8.32,11.19a25.14,25.14,0,0,0,17.31-2.39c5.14-2.94,8.92-8.37,9.1-14.22v-.42l.61.24c.09.33.18.68.26,1.05l.91.26a19.09,19.09,0,0,1,0,6.31l-6.33,5.06a8.82,8.82,0,0,0,.08,1l-.08.06a7.06,7.06,0,0,0,.07.83l-12.38,7.72a49.44,49.44,0,0,0-17,24.23L661.6,357.05s-7.24,6.77-11.22,7.84l-33.67,29.22s-11.66,6.35-11.61,12.69h0v.39h0v.38h0a.94.94,0,0,0,.08.36h0a1.18,1.18,0,0,0,.11.35v.06a.91.91,0,0,0,.13.33v.07l.16.32v.08l.18.3.06.09.2.29.08.1.23.28.1.11.25.26.12.12.27.25.14.13.3.25.16.13.33.24.17.13.38.26.16.11.6.36c13,7.48,16.29-11.76,16.29-11.76l39.1-25.66s32.22-29.22,32.22-35.63l7,3-.12,1.26v1.07s-.36,15,18.46,18.89c0,0,17.21,17.27,17.73,22.76v.4c-.3,4.2,3.75,12.43,5,14.94l-6.85,5.73.07,1-.07.06.26,3.56c-7.75,8.35-19,20.74-20.17,23.52-1.81,4.28-1.81,13.54,2.53,23.16l4.71,42.4V513.6l-2.17-1v2.8a5.14,5.14,0,0,1-2.53-2.09v.36h0c-.06,2.07-1.17,12.1-17,18.15,0,0-10.5,1-10.23,5.34-.11,1.46,1.05,3.33,4.43,5.71,12.67,8.91,51-2.49,51-2.49V540h0s-.72-11.4-5.07-20.67c0,0-1-.07-2.53-.22v-2.63l-1.58-.27a69.39,69.39,0,0,1,1.47-14.87,116.51,116.51,0,0,0,2.07-34.5,43.21,43.21,0,0,0,6,6.17l22.85,36.24,2.7,5.55c-1,.72-2,1.35-2.82,1.86l4.59,4.25a4.32,4.32,0,0,1-3.2,0s.36,12.83-11.22,15.32c-4.62,1-4.8,2.78-3,4.46,2.46,2.67,10.43,5.21,14.53,4.09,6.52-1.78,33.31-24.94,33.31-24.94a69.09,69.09,0,0,0-8-9.85c-2.62-2.62-5.49-4.75-7.88-4.75,0,0-.55.91-1.48,2.3l-2.86-2.65-.29.27c-.24-.79-.46-1.59-.65-2.38,0,0-5.55-25.43-22.55-44.69,0,0-3.35-2.77,1.83-11.92,0,0,8.38-9.94,15.69-20.72,10.63,2.07,21.57,1.22,29.87-6.44l-.11-.66.47-.41-3.62-22.45s1.63-21.2-24.8-38.31c0,0-14.3-17.64-19.37-40.09H763l.29-3.89c3.26,2.49,38-2.14,38-2.14l46-19.24c2.61-1.43,9.88-11.34,9.85-18.52A7.16,7.16,0,0,0,855.65,268.33Z" transform="translate(0.01 0)" style="fill: url(#a)"/>
  <path d="M788,291.52a13.68,13.68,0,0,0,9.86,5.19A31.68,31.68,0,0,1,787.7,303c-10.82,4.25-23.92,3-33.24-4.08-2.19-1.67-4.29-3.66-7-4.31-2.32-.57-4.76,0-7.16-.13a14.21,14.21,0,0,1-12.92-10.62c-.69-2.93-.41-6-.91-9a13.12,13.12,0,0,0-.33-1.51c-1.4-5-7.94-10.38-13.45-8.92-5.2,1.37-7.87,9.55-7.76,14.23.11,5.15,2.6,10.07,2.44,15.22-.18,5.77-3.85,11.13-8.84,14a24.13,24.13,0,0,1-16.77,2.34c4.44-1.75,7.27-6.34,8.08-11s-.11-9.52-1.29-14.14a15.92,15.92,0,0,1-.74-4.7c.09-1.69.75-3.29,1-5,.73-5.45-3.2-10.69-2.66-16.16a12.78,12.78,0,0,1,5.56-8.85,25.29,25.29,0,0,1,10-3.86c2.82-.54,6-1,7.82-3.19,1.09-1.28,1.58-3,2.83-4.15,1.82-1.63,4.59-1.42,7-1.1,13.73,1.82,28.59,4.73,37.58,15.27,1.88,2.2,3.47,4.72,5.81,6.42,3.24,2.37,7.45,2.84,11.23,4.2a24.79,24.79,0,0,1,13.35,11.57c1,2,2,4.24,4,5.18a8.39,8.39,0,0,0,3.13.58l10.54.6A18.82,18.82,0,0,1,788,291.52Z" transform="translate(0.01 0)" style="fill: #f55f44"/>
  <path d="M734.8,291.65s5.1.53,15.29-1.93S770.48,295,770.48,295l21.44,1.76,43.58-10.19S846.75,263,852,269.34s-4.92,21.09-8.08,22.85l-44.68,19s-33.74,4.57-36.9,2.11l-.7,9.49-16.87-8.08-7.35-17.22Z" transform="translate(0.01 0)" style="fill: #fdb797"/>
  <path d="M843.93,291.82l-44.64,19s-33.74,4.57-36.9,2.11l-.7,9.49-16.87-8.08-7.38-17.22-2.31-5.07h-.33l2.64,5.8,7.38,17.22,16.87,8.08.7-9.49c3.16,2.46,36.9-2.11,36.9-2.11l44.64-19c2.58-1.43,9.81-11.49,9.56-18.59C853.26,281,846.43,290.45,843.93,291.82Z" transform="translate(0.01 0)" style="opacity: 0.05000000074505806;isolation: isolate"/>
  <path d="M705.45,306.58,691,315.72a48.73,48.73,0,0,0-16.52,23.9l-10.9,17.22s-7,6.68-10.9,7.73L620,393.39s-19.68,10.9-7,18.28,15.82-11.6,15.82-11.6l38-25.31s31.28-28.82,31.28-35.15l11.25,4.92Z" transform="translate(0.01 0)" style="fill: #fdb797"/>
  <path d="M698.07,338.92c0,6.33-31.28,35.15-31.28,35.15l-38,25.31s-3.16,19-15.82,11.6c-2.9-1.69-4.1-3.57-4.23-5.45-.14,2.12,1,4.25,4.23,6.16,12.65,7.38,15.82-11.6,15.82-11.6l38-25.31s31.28-28.82,31.28-35.15l11.25,4.92-.07-.74Z" transform="translate(0.01 0)" style="opacity: 0.05000000074505806;isolation: isolate"/>
  <path d="M747.46,412.28s-11,34.87-10.73,39.43,4.18,12.8,12.09,19.54L771,507l6.83,14.26,13.43-3.7s-5-8.89-6.94-16.94c0,0-5.39-25.09-21.89-44.08,0,0-3.25-2.73,1.77-11.76,0,0,24.72-29.76,25.55-41.85Z" transform="translate(0.01 0)" style="fill: #fdb797"/>
  <path d="M747.46,412.28s-11,34.87-10.73,39.43,4.18,12.8,12.09,19.54L771,507l6.83,14.26,13.43-3.7s-5-8.89-6.94-16.94c0,0-5.39-25.09-21.89-44.08,0,0-3.25-2.73,1.77-11.76,0,0,24.72-29.76,25.55-41.85Z" transform="translate(0.01 0)" style="opacity: 0.05000000074505806;isolation: isolate"/>
  <path d="M745.87,403.59s-25,26.71-26.71,30.93-1.76,13.36,2.46,22.85l4.57,41.83V515l13.71,2.43s-.7-10.19,1.05-18.28c0,0,6-25-.7-49.21,0,0-1.76-3.87,6.68-9.84,0,0,35.15-16.17,41.12-26.71Z" transform="translate(0.01 0)" style="opacity: 0.10000000149011612;isolation: isolate"/>
  <path d="M745.52,403.59s-25,26.71-26.71,30.93-1.76,13.36,2.46,22.85l4.57,41.83V515l13.71,2.43s-.7-10.19,1.05-18.28c0,0,6-25-.7-49.21,0,0-1.76-3.87,6.68-9.84,0,0,35.15-16.17,41.12-26.71Z" transform="translate(0.01 0)" style="fill: #fdb797"/>
  <path d="M745.7,403.59l-.19.2,41.31,9.66c-6,10.54-41.12,26.71-41.12,26.71-8.44,6-6.68,9.84-6.68,9.84,6.68,24.25.7,49.21.7,49.21-1.62,7.45-1.15,16.67-1.07,18.09l1.07.19s-.7-10.19,1-18.28c0,0,6-25-.7-49.21,0,0-1.76-3.87,6.68-9.84,0,0,35.15-16.17,41.12-26.71Z" transform="translate(0.01 0)" style="opacity: 0.05000000074505806;isolation: isolate"/>
  <path d="M707.26,289.36s4.92,7.73,0,17.93l4.92,25.31,20.39-2.81,9.84-11.25-7.78-27.09s-6.33,2.46-7-14.76Z" transform="translate(0.01 0)" style="fill: #fdb797"/>
  <path d="M703,307.29s1.41,18.63,3.16,22.85l-1.41,14.76s-.35,14.76,17.93,18.63c0,0,17.57,17.93,17.22,22.85s5.27,15.46,5.27,15.46l-7,6,.35,4.92,4.92-4.92s42.53,31.28,65,10.19l-3.51-22.14s3-18.8-22.67-35.67c0,0-15.29-19.51-20.21-41.65,0,0-14.06-1.41-17.57-6.68l-7-21.09-5.8,1.23,5.45,23.37s-6.33,21.09-23.9,12l-4-25Z" transform="translate(0.01 0)" style="opacity: 0.10000000149011612;isolation: isolate"/>
  <path d="M703,306.23s1.41,18.63,3.16,22.85l-1.41,14.76s-.35,14.76,17.93,18.63c0,0,17.57,17.93,17.22,22.85s5.27,15.46,5.27,15.46l-7,6,.35,4.92,4.92-4.92s42.53,31.28,65,10.19l-3.51-22.14s1.58-20.91-24.08-37.78c0,0-13.88-17.4-18.8-39.54,0,0-14.06-1.41-17.57-6.68l-7-21.09-5.8,1.23,5.45,23.37s-6.33,21.09-23.9,12l-4-25Z" transform="translate(0.01 0)" style="fill: #252a62"/>
  <path d="M518.74,390.12" transform="translate(0.01 0)" style="fill: #b4abab"/>
  <rect x="516.34" y="394.63" width="56.33" height="0.35" style="fill: #b4abab"/>
  <rect x="517.75" y="392.17" width="53.52" height="0.35" style="fill: #b4abab"/>
  <rect x="518.8" y="389.71" width="48.95" height="0.35" style="fill: #b4abab"/>
  <rect x="520.56" y="387.25" width="43.32" height="0.35" style="fill: #b4abab"/>
  <rect x="523.02" y="384.79" width="37" height="0.35" style="fill: #b4abab"/>
  <rect x="526.18" y="382.33" width="29.62" height="0.35" style="fill: #b4abab"/>
  <rect x="531.1" y="379.87" width="18.37" height="0.35" style="fill: #b4abab"/>
  <rect x="515.28" y="397.44" width="59.49" height="0.35" style="fill: #b4abab"/>
  <rect x="515.28" y="400.25" width="60.55" height="0.35" style="fill: #b4abab"/>
  <rect x="514.23" y="403.06" width="62.3" height="0.35" style="fill: #b4abab"/>
  <rect x="514.23" y="405.87" width="63.12" height="0.35" style="fill: #b4abab"/>
  <rect x="514.23" y="408.69" width="62.77" height="0.35" style="fill: #b4abab"/>
  <rect x="514.93" y="411.5" width="61.01" height="0.35" style="fill: #b4abab"/>
  <rect x="516.34" y="414.31" width="57.84" height="0.35" style="fill: #b4abab"/>
  <rect x="516.34" y="417.12" width="55.38" height="0.35" style="fill: #b4abab"/>
  <rect x="518.8" y="419.93" width="49.76" height="0.35" style="fill: #b4abab"/>
  <rect x="521.26" y="422.74" width="43.43" height="0.35" style="fill: #b4abab"/>
  <rect x="524.07" y="425.56" width="36.41" height="0.35" style="fill: #b4abab"/>
  <rect x="529.7" y="428.37" width="25.86" height="0.35" style="fill: #b4abab"/>
  <rect x="521.58" y="386.25" width="0.35" height="37.29" style="fill: #b4abab"/>
  <rect x="519.47" y="389.06" width="0.35" height="32.02" style="fill: #b4abab"/>
  <rect x="517.36" y="392.22" width="0.35" height="26.05" style="fill: #b4abab"/>
  <rect x="515.25" y="397.14" width="0.35" height="16.56" style="fill: #b4abab"/>
  <rect x="524.39" y="383.79" width="0.35" height="42.21" style="fill: #b4abab"/>
  <rect x="527.2" y="382.03" width="0.35" height="45.38" style="fill: #b4abab"/>
  <rect x="530.01" y="380.62" width="0.35" height="47.84" style="fill: #b4abab"/>
  <rect x="532.83" y="379.57" width="0.35" height="49.95" style="fill: #b4abab"/>
  <rect x="535.64" y="378.52" width="0.35" height="52.06" style="fill: #b4abab"/>
  <rect x="538.45" y="378.52" width="0.35" height="52.06" style="fill: #b4abab"/>
  <rect x="541.26" y="378.52" width="0.35" height="52.06" style="fill: #b4abab"/>
  <rect x="544.07" y="378.52" width="0.35" height="52.06" style="fill: #b4abab"/>
  <rect x="546.89" y="379.57" width="0.35" height="51" style="fill: #b4abab"/>
  <rect x="549.7" y="380.27" width="0.35" height="49.95" style="fill: #b4abab"/>
  <rect x="552.51" y="380.98" width="0.35" height="48.54" style="fill: #b4abab"/>
  <rect x="555.32" y="382.38" width="0.35" height="45.73" style="fill: #b4abab"/>
  <rect x="558.13" y="383.79" width="0.35" height="43.27" style="fill: #b4abab"/>
  <rect x="560.94" y="386.25" width="0.35" height="39.4" style="fill: #b4abab"/>
  <rect x="563.76" y="387.3" width="0.35" height="36.24" style="fill: #b4abab"/>
  <rect x="566.57" y="389.41" width="0.35" height="32.37" style="fill: #b4abab"/>
  <rect x="569.38" y="391.87" width="0.35" height="27.8" style="fill: #b4abab"/>
  <rect x="572.19" y="393.98" width="0.35" height="22.53" style="fill: #b4abab"/>
  <rect x="575" y="398.55" width="0.35" height="14.8" style="fill: #b4abab"/>
  <path d="M541.9,431.63a33,33,0,0,1-9.26-1.27c-7.46-2.17-13.09-6.61-16.28-12.85a27.41,27.41,0,0,1-2-18.7c2.82-12,13.69-23.55,30.9-20.46l.58.11a42.84,42.84,0,0,1,16.71,7.14c28.56,20.1,35,17.41,35,17.38l1.06-.61v4.46l-.77-.08c-9.38-1-24,9.74-31.94,16.2A37.68,37.68,0,0,1,545,431.5C544,431.59,542.93,431.63,541.9,431.63Zm-2.15-52.38c-13.28,0-21.68,9.76-24,19.88-2.62,11.19,1.68,25.32,17.33,29.87a33.08,33.08,0,0,0,11.88,1.09A36.27,36.27,0,0,0,565,421.85c7.86-6.43,22.33-17,32.2-16.56v-.84c-2.77.32-11.56-.9-35.48-17.74a41.48,41.48,0,0,0-16.17-6.91l-.57-.11a29.42,29.42,0,0,0-5.22-.43Z" transform="translate(0.01 0)" style="fill: #535461"/>
  <path d="M595.79,401.13H626a3.51,3.51,0,0,1,3.51,3.51h0a3.51,3.51,0,0,1-3.51,3.51H595.79v-7Z" transform="translate(0.01 0)" style="fill: #535461"/>
  <rect x="595.8" y="401.13" width="4.22" height="7.03" style="fill: #f0e4e4"/>
  <path d="M568.26,421l-.82-1.14c6-4.31,9-9,9-14,0-8.53-8.92-15.16-9-15.22l.83-1.14c.39.29,9.61,7.1,9.59,16.36C577.86,411.36,574.64,416.45,568.26,421Z" transform="translate(0.01 0)" style="fill: #535461"/>
  <path d="M729.06,289c-1-2.18-1.93-5.75-2.16-11.54l-20.39,12.65a15.78,15.78,0,0,1,1.75,4.7A19.68,19.68,0,0,0,729.06,289Z" transform="translate(0.01 0)" style="opacity: 0.10000000149011612;isolation: isolate"/>
  <circle cx="714.95" cy="275.3" r="19.68" style="fill: #fdb797"/>
  <path d="M714,270.45c2,.8,3.33,2.68,5.23,3.65,2.73,1.39,6,.67,9.06,1.24,3.43.65,6.57,3,10,2.68,4.12-.36,7.13-4.68,7-8.81s-2.85-7.83-6.21-10.23-7.36-3.72-11.29-5c-5-1.65-10.4-3.31-15.57-2.12-4.82,1.11-17.8,7.49-17.13,13.53C696.19,275.1,709,268.45,714,270.45Z" transform="translate(0.01 0)" style="opacity: 0.10000000149011612;isolation: isolate"/>
  <path d="M714,269.76c2,.8,3.33,2.68,5.23,3.65,2.73,1.39,6,.67,9.06,1.24,3.43.65,6.57,3,10,2.68,4.12-.36,7.13-4.68,7-8.81s-2.85-7.83-6.21-10.23-7.36-3.72-11.29-5c-5-1.65-10.4-3.31-15.57-2.12-4.82,1.11-17.8,7.49-17.13,13.53C696.19,274.4,709,267.74,714,269.76Z" transform="translate(0.01 0)" style="fill: #f55f44"/>
  <path d="M743.26,386.54s1,8.79,3.87,11.6" transform="translate(0.01 0)" style="opacity: 0.10000000149011612;isolation: isolate"/>
  <path d="M779.09,358.07a11.52,11.52,0,0,1-1.76,7.73" transform="translate(0.01 0)" style="opacity: 0.10000000149011612;isolation: isolate"/>
  <path d="M762.26,335.58s-3.16,6.33-11.6,10.54" transform="translate(0.01 0)" style="opacity: 0.10000000149011612;isolation: isolate"/>
  <g style="opacity: 0.05000000074505806">
    <path d="M711.08,327.32c6.15,3.2,10.92,2.69,14.53.69-3.24,1-7.22.78-12.07-1.74l-4-25-2.33,1.89Z" transform="translate(0.01 0)"/>
    <path d="M735.33,290.77l7,21.09c3.51,5.27,17.57,6.68,17.57,6.68,4.92,22.14,18.8,39.54,18.8,39.54,25.66,16.87,24.08,37.78,24.08,37.78L806.29,418a25.87,25.87,0,0,1-6.37,4.4,25.9,25.9,0,0,0,8.83-5.46l-3.49-22.14s1.58-20.91-24.08-37.78c0,0-13.88-17.4-18.8-39.54,0,0-14.06-1.41-17.57-6.68l-7-21.09-5.8,1.23.12.51Z" transform="translate(0.01 0)"/>
    <path d="M741.26,407.81l-2.55,2.55.09,1.31,3.28-3.28Z" transform="translate(0.01 0)"/>
  </g>
  <path d="M755.89,396.74s14.76-10.19,26.71-10.19" transform="translate(0.01 0)" style="opacity: 0.10000000149011612;isolation: isolate"/>
  <path d="M725.66,359.83s8.44-5.27,10.9-9.49" transform="translate(0.01 0)" style="opacity: 0.10000000149011612;isolation: isolate"/>
  <path d="M618.81,397.45s-4.22,5.27-2.11,7,7.38-6,7.38-6Z" transform="translate(0.01 0)" style="fill: #fdb797"/>
  <path d="M466.61,403.94a8.91,8.91,0,0,0-8.91,8.91h0a6.46,6.46,0,0,0,0,.88,2,2,0,0,0,.06.48v.13h0a8.85,8.85,0,0,0,3,5.27l.29.24a8.91,8.91,0,1,0,5.48-15.92Z" transform="translate(0.01 0)" style="fill: url(#b)"/>
  <path d="M461.5,419.39a8.3,8.3,0,1,0-3.2-6.54,5.61,5.61,0,0,0,0,.82,2.3,2.3,0,0,0,.05.45v.12h0a8.27,8.27,0,0,0,2.81,4.92Z" transform="translate(0.01 0)" style="fill: #3ad29f"/>
  <path d="M461.5,419.39h.29c.11-1.16,3.34-3,6-4.49s4.52-2.61,4.8-3.47c.37-1.1-.73-2.39-1.91-3.11-1.4-.87-3.4-1.28-4.82.14a43.67,43.67,0,0,1-7.47,5.18l.05.45v.12h0c.22-.12,5.41-3,7.79-5.4,1.18-1.17,2.89-.8,4.09,0s1.87,1.77,1.66,2.42-2.52,2-4.54,3.14c-2.87,1.65-5.84,3.33-6.21,4.76Z" transform="translate(0.01 0)" style="fill: #f0e4e4"/>
  <path d="M785.26,502.71s-9,8.44-14.35,11.6l4.86,4.57,15.49-2.12v-8.44Z" transform="translate(0.01 0)" style="fill: #f0e4e4"/>
  <polygon points="726.9 511.86 723.74 510.44 723.74 519.59 741.31 522.39 741.31 514.32 726.9 511.86" style="fill: #f0e4e4"/>
  <path d="M721.26,510.45s.7,11.6-16.52,18.28c0,0-17.93,1.76-5.62,10.54s49.56-2.46,49.56-2.46-.7-11.25-4.92-20.39C743.76,516.45,723.38,515.06,721.26,510.45Z" transform="translate(0.01 0)" style="opacity: 0.05000000074505806;isolation: isolate"/>
  <path d="M721.26,511.45s.7,11.6-16.52,18.28c0,0-17.93,1.76-5.62,10.54s49.56-2.46,49.56-2.46-.7-11.25-4.92-20.39C743.76,517.45,723.38,516.06,721.26,511.45Z" transform="translate(0.01 0)" style="fill: #f0e4e4"/>
  <path d="M772.58,517.87s.35,12.65-10.9,15.11,4.57,9.84,10.9,8.08,32.34-24.61,32.34-24.61-9.14-14-15.11-14C789.81,502.45,778.91,520.69,772.58,517.87Z" transform="translate(0.01 0)" style="opacity: 0.05000000074505806;isolation: isolate"/>
  <path d="M772.58,518.87s.35,12.65-10.9,15.11,4.57,9.84,10.9,8.08,32.34-24.61,32.34-24.61-9.14-14-15.11-14C789.81,503.45,778.91,521.69,772.58,518.87Z" transform="translate(0.01 0)" style="fill: #f0e4e4"/>
  <polygon points="256.12 453.46 306.1 554.98 356.09 656.48 256.12 656.48 156.15 656.48 206.13 554.98 256.12 453.46" style="fill: none;stroke: #f0e4e4;stroke-miterlimit: 10"/>
  <polygon points="98.12 453.46 148.1 554.98 198.09 656.48 98.12 656.48 98.12 453.46" style="fill: none;stroke: #f0e4e4;stroke-miterlimit: 10"/>
  <polygon points="187.12 453.46 237.1 554.98 287.09 656.48 187.12 656.48 107.12 649.48 112.64 604.72 137.13 554.98 187.12 453.46" style="fill: none;stroke: #f0e4e4;stroke-miterlimit: 10"/>
  <polygon points="304.12 453.46 354.1 554.98 404.09 656.48 304.12 656.48 204.15 656.48 254.13 554.98 304.12 453.46" style="fill: none;stroke: #f0e4e4;stroke-miterlimit: 10"/>
  <polygon points="397.12 453.46 447.1 554.98 497.09 656.48 397.12 656.48 297.15 656.48 347.13 554.98 397.12 453.46" style="fill: none;stroke: #f0e4e4;stroke-miterlimit: 10"/>
  <polygon points="497.12 453.46 547.1 554.98 597.09 656.48 497.12 656.48 397.15 656.48 447.13 554.98 497.12 453.46" style="fill: none;stroke: #f0e4e4;stroke-miterlimit: 10"/>
  <polygon points="597.12 453.46 647.1 554.98 697.09 656.48 597.12 656.48 497.15 656.48 547.13 554.98 597.12 453.46" style="fill: none;stroke: #f0e4e4;stroke-miterlimit: 10"/>
  <polygon points="699.12 453.46 749.1 554.98 799.09 656.48 699.12 656.48 599.15 656.48 649.13 554.98 699.12 453.46" style="fill: none;stroke: #f0e4e4;stroke-miterlimit: 10"/>
  <polygon points="800.12 453.46 850.1 554.98 900.09 656.48 800.12 656.48 700.15 656.48 750.13 554.98 800.12 453.46" style="fill: none;stroke: #f0e4e4;stroke-miterlimit: 10"/>
  <polygon points="894.12 453.46 944.1 554.98 994.09 656.48 894.12 656.48 794.15 656.48 844.13 554.98 894.12 453.46" style="fill: none;stroke: #f0e4e4;stroke-miterlimit: 10"/>
  <polygon points="1034.79 656.48 979.15 656.48 1029.13 554.98 1031.12 550.95 1034.79 656.48" style="fill: none;stroke: #f0e4e4;stroke-miterlimit: 10"/>
  <polygon points="954.12 453.46 1004.1 554.98 1054.09 656.48 954.12 656.48 854.15 656.48 904.13 554.98 954.12 453.46" style="fill: none;stroke: #f0e4e4;stroke-miterlimit: 10"/>
  <polygon points="983.12 453.46 1033.1 554.98 1044.12 577.34 1044.12 656.48 983.12 656.48 883.15 656.48 933.13 554.98 983.12 453.46" style="fill: none;stroke: #f0e4e4;stroke-miterlimit: 10"/>
  <polygon points="1016.12 453.46 1016.12 656.48 916.15 656.48 966.13 554.98 1016.12 453.46" style="fill: none;stroke: #f0e4e4;stroke-miterlimit: 10"/>
  <polygon points="453.12 453.46 503.1 554.98 553.09 656.48 453.12 656.48 353.15 656.48 403.13 554.98 453.12 453.46" style="fill: none;stroke: #f0e4e4;stroke-miterlimit: 10"/>
  <polygon points="650.12 453.46 700.1 554.98 750.09 656.48 650.12 656.48 550.15 656.48 600.13 554.98 650.12 453.46" style="fill: none;stroke: #f0e4e4;stroke-miterlimit: 10"/>
  <polygon points="847.12 453.46 897.1 554.98 947.09 656.48 847.12 656.48 747.15 656.48 797.13 554.98 847.12 453.46" style="fill: none;stroke: #f0e4e4;stroke-miterlimit: 10"/>
  <polygon points="1044.12 453.46 1048.55 462.48 1042.12 555.48 1044.12 656.48 1044.12 656.48 944.15 656.48 994.13 554.98 1044.12 453.46" style="fill: none;stroke: #f0e4e4;stroke-miterlimit: 10"/>
  <polygon points="854.12 657.48 804.13 555.98 754.15 454.46 854.12 454.46 954.09 454.46 904.1 555.98 854.12 657.48" style="fill: none;stroke: #f0e4e4;stroke-miterlimit: 10"/>
  <polygon points="649.12 657.48 599.13 555.98 549.15 454.46 649.12 454.46 749.09 454.46 699.1 555.98 649.12 657.48" style="fill: none;stroke: #f0e4e4;stroke-miterlimit: 10"/>
  <polygon points="444.12 657.48 394.13 555.98 344.15 454.46 444.12 454.46 544.09 454.46 494.1 555.98 444.12 657.48" style="fill: none;stroke: #f0e4e4;stroke-miterlimit: 10"/>
  <polygon points="239.12 657.48 189.13 555.98 139.15 454.46 239.12 454.46 339.09 454.46 289.1 555.98 239.12 657.48" style="fill: none;stroke: #f0e4e4;stroke-miterlimit: 10"/>
  <rect x="125.12" y="444.47" width="910" height="18" style="fill: #f0e4e4"/>
  <rect x="125.12" y="649.47" width="910" height="18" style="fill: #f0e4e4"/>
  <rect x="96.12" y="429.47" width="36" height="253" style="fill: #535461"/>
  <rect x="1017.12" y="429.47" width="36" height="253" style="fill: #535461"/>
</svg>
